<?xml version="1.0" encoding="utf-8" standalone="no"?>
<!DOCTYPE svg PUBLIC "-//W3C//DTD SVG 1.1//EN"
  "http://www.w3.org/Graphics/SVG/1.1/DTD/svg11.dtd">
<svg xmlns:xlink="http://www.w3.org/1999/xlink" width="864pt" height="432pt" viewBox="0 0 864 432" xmlns="http://www.w3.org/2000/svg" version="1.1">
 <metadata>
  <rdf:RDF xmlns:dc="http://purl.org/dc/elements/1.1/" xmlns:cc="http://creativecommons.org/ns#" xmlns:rdf="http://www.w3.org/1999/02/22-rdf-syntax-ns#">
   <cc:Work>
    <dc:type rdf:resource="http://purl.org/dc/dcmitype/StillImage"/>
    <dc:date>2025-01-07T03:13:03.004850</dc:date>
    <dc:format>image/svg+xml</dc:format>
    <dc:creator>
     <cc:Agent>
      <dc:title>Matplotlib v3.10.0, https://matplotlib.org/</dc:title>
     </cc:Agent>
    </dc:creator>
   </cc:Work>
  </rdf:RDF>
 </metadata>
 <defs>
  <style type="text/css">*{stroke-linejoin: round; stroke-linecap: butt}</style>
 </defs>
 <g id="figure_1">
  <g id="patch_1">
   <path d="M 0 432 
L 864 432 
L 864 0 
L 0 0 
z
" style="fill: #ffffff"/>
  </g>
  <g id="axes_1">
   <g id="patch_2">
    <path d="M 50.6 387.16 
L 853.2 387.16 
L 853.2 27.6 
L 50.6 27.6 
z
" style="fill: #ffffff"/>
   </g>
   <g id="patch_3">
    <path d="M 87.081818 387.16 
L 94.527087 387.16 
L 94.527087 332.602066 
L 87.081818 332.602066 
z
" clip-path="url(#pead4b0da91)" style="fill: #1f77b4; opacity: 0.8"/>
   </g>
   <g id="patch_4">
    <path d="M 154.089239 387.16 
L 161.534508 387.16 
L 161.534508 339.566909 
L 154.089239 339.566909 
z
" clip-path="url(#pead4b0da91)" style="fill: #1f77b4; opacity: 0.8"/>
   </g>
   <g id="patch_5">
    <path d="M 221.09666 387.16 
L 228.541929 387.16 
L 228.541929 320.993995 
L 221.09666 320.993995 
z
" clip-path="url(#pead4b0da91)" style="fill: #1f77b4; opacity: 0.8"/>
   </g>
   <g id="patch_6">
    <path d="M 288.104082 387.16 
L 295.549351 387.16 
L 295.549351 298.93866 
L 288.104082 298.93866 
z
" clip-path="url(#pead4b0da91)" style="fill: #1f77b4; opacity: 0.8"/>
   </g>
   <g id="patch_7">
    <path d="M 355.111503 387.16 
L 362.556772 387.16 
L 362.556772 293.134625 
L 355.111503 293.134625 
z
" clip-path="url(#pead4b0da91)" style="fill: #1f77b4; opacity: 0.8"/>
   </g>
   <g id="patch_8">
    <path d="M 422.118924 387.16 
L 429.564193 387.16 
L 429.564193 294.295432 
L 422.118924 294.295432 
z
" clip-path="url(#pead4b0da91)" style="fill: #1f77b4; opacity: 0.8"/>
   </g>
   <g id="patch_9">
    <path d="M 489.126345 387.16 
L 496.571614 387.16 
L 496.571614 290.81301 
L 489.126345 290.81301 
z
" clip-path="url(#pead4b0da91)" style="fill: #1f77b4; opacity: 0.8"/>
   </g>
   <g id="patch_10">
    <path d="M 556.133766 387.16 
L 563.579035 387.16 
L 563.579035 285.008975 
L 556.133766 285.008975 
z
" clip-path="url(#pead4b0da91)" style="fill: #1f77b4; opacity: 0.8"/>
   </g>
   <g id="patch_11">
    <path d="M 623.141187 387.16 
L 630.586456 387.16 
L 630.586456 274.561711 
L 623.141187 274.561711 
z
" clip-path="url(#pead4b0da91)" style="fill: #1f77b4; opacity: 0.8"/>
   </g>
   <g id="patch_12">
    <path d="M 690.148609 387.16 
L 697.593878 387.16 
L 697.593878 257.149605 
L 690.148609 257.149605 
z
" clip-path="url(#pead4b0da91)" style="fill: #1f77b4; opacity: 0.8"/>
   </g>
   <g id="patch_13">
    <path d="M 757.15603 387.16 
L 764.601299 387.16 
L 764.601299 244.380726 
L 757.15603 244.380726 
z
" clip-path="url(#pead4b0da91)" style="fill: #1f77b4; opacity: 0.8"/>
   </g>
   <g id="patch_14">
    <path d="M 94.527087 387.16 
L 101.972356 387.16 
L 101.972356 331.441259 
L 94.527087 331.441259 
z
" clip-path="url(#pead4b0da91)" style="fill: #ff7f0e; opacity: 0.8"/>
   </g>
   <g id="patch_15">
    <path d="M 161.534508 387.16 
L 168.979777 387.16 
L 168.979777 343.04933 
L 161.534508 343.04933 
z
" clip-path="url(#pead4b0da91)" style="fill: #ff7f0e; opacity: 0.8"/>
   </g>
   <g id="patch_16">
    <path d="M 228.541929 387.16 
L 235.987199 387.16 
L 235.987199 323.315609 
L 228.541929 323.315609 
z
" clip-path="url(#pead4b0da91)" style="fill: #ff7f0e; opacity: 0.8"/>
   </g>
   <g id="patch_17">
    <path d="M 295.549351 387.16 
L 302.99462 387.16 
L 302.99462 297.777853 
L 295.549351 297.777853 
z
" clip-path="url(#pead4b0da91)" style="fill: #ff7f0e; opacity: 0.8"/>
   </g>
   <g id="patch_18">
    <path d="M 362.556772 387.16 
L 370.002041 387.16 
L 370.002041 294.295432 
L 362.556772 294.295432 
z
" clip-path="url(#pead4b0da91)" style="fill: #ff7f0e; opacity: 0.8"/>
   </g>
   <g id="patch_19">
    <path d="M 429.564193 387.16 
L 437.009462 387.16 
L 437.009462 271.07929 
L 429.564193 271.07929 
z
" clip-path="url(#pead4b0da91)" style="fill: #ff7f0e; opacity: 0.8"/>
   </g>
   <g id="patch_20">
    <path d="M 496.571614 387.16 
L 504.016883 387.16 
L 504.016883 273.400904 
L 496.571614 273.400904 
z
" clip-path="url(#pead4b0da91)" style="fill: #ff7f0e; opacity: 0.8"/>
   </g>
   <g id="patch_21">
    <path d="M 563.579035 387.16 
L 571.024304 387.16 
L 571.024304 233.933462 
L 563.579035 233.933462 
z
" clip-path="url(#pead4b0da91)" style="fill: #ff7f0e; opacity: 0.8"/>
   </g>
   <g id="patch_22">
    <path d="M 630.586456 387.16 
L 638.031725 387.16 
L 638.031725 209.556513 
L 630.586456 209.556513 
z
" clip-path="url(#pead4b0da91)" style="fill: #ff7f0e; opacity: 0.8"/>
   </g>
   <g id="patch_23">
    <path d="M 697.593878 387.16 
L 705.039147 387.16 
L 705.039147 208.395706 
L 697.593878 208.395706 
z
" clip-path="url(#pead4b0da91)" style="fill: #ff7f0e; opacity: 0.8"/>
   </g>
   <g id="patch_24">
    <path d="M 764.601299 387.16 
L 772.046568 387.16 
L 772.046568 187.501178 
L 764.601299 187.501178 
z
" clip-path="url(#pead4b0da91)" style="fill: #ff7f0e; opacity: 0.8"/>
   </g>
   <g id="patch_25">
    <path d="M 101.972356 387.16 
L 109.417625 387.16 
L 109.417625 345.370944 
L 101.972356 345.370944 
z
" clip-path="url(#pead4b0da91)" style="fill: #2ca02c; opacity: 0.8"/>
   </g>
   <g id="patch_26">
    <path d="M 168.979777 387.16 
L 176.425046 387.16 
L 176.425046 334.92368 
L 168.979777 334.92368 
z
" clip-path="url(#pead4b0da91)" style="fill: #2ca02c; opacity: 0.8"/>
   </g>
   <g id="patch_27">
    <path d="M 235.987199 387.16 
L 243.432468 387.16 
L 243.432468 315.18996 
L 235.987199 315.18996 
z
" clip-path="url(#pead4b0da91)" style="fill: #2ca02c; opacity: 0.8"/>
   </g>
   <g id="patch_28">
    <path d="M 302.99462 387.16 
L 310.439889 387.16 
L 310.439889 323.315609 
L 302.99462 323.315609 
z
" clip-path="url(#pead4b0da91)" style="fill: #2ca02c; opacity: 0.8"/>
   </g>
   <g id="patch_29">
    <path d="M 370.002041 387.16 
L 377.44731 387.16 
L 377.44731 290.81301 
L 370.002041 290.81301 
z
" clip-path="url(#pead4b0da91)" style="fill: #2ca02c; opacity: 0.8"/>
   </g>
   <g id="patch_30">
    <path d="M 437.009462 387.16 
L 444.454731 387.16 
L 444.454731 257.149605 
L 437.009462 257.149605 
z
" clip-path="url(#pead4b0da91)" style="fill: #2ca02c; opacity: 0.8"/>
   </g>
   <g id="patch_31">
    <path d="M 504.016883 387.16 
L 511.462152 387.16 
L 511.462152 253.667183 
L 504.016883 253.667183 
z
" clip-path="url(#pead4b0da91)" style="fill: #2ca02c; opacity: 0.8"/>
   </g>
   <g id="patch_32">
    <path d="M 571.024304 387.16 
L 578.469573 387.16 
L 578.469573 249.023955 
L 571.024304 249.023955 
z
" clip-path="url(#pead4b0da91)" style="fill: #2ca02c; opacity: 0.8"/>
   </g>
   <g id="patch_33">
    <path d="M 638.031725 387.16 
L 645.476994 387.16 
L 645.476994 218.84297 
L 638.031725 218.84297 
z
" clip-path="url(#pead4b0da91)" style="fill: #2ca02c; opacity: 0.8"/>
   </g>
   <g id="patch_34">
    <path d="M 705.039147 387.16 
L 712.484416 387.16 
L 712.484416 207.234899 
L 705.039147 207.234899 
z
" clip-path="url(#pead4b0da91)" style="fill: #2ca02c; opacity: 0.8"/>
   </g>
   <g id="patch_35">
    <path d="M 772.046568 387.16 
L 779.491837 387.16 
L 779.491837 182.85795 
L 772.046568 182.85795 
z
" clip-path="url(#pead4b0da91)" style="fill: #2ca02c; opacity: 0.8"/>
   </g>
   <g id="patch_36">
    <path d="M 109.417625 387.16 
L 116.862894 387.16 
L 116.862894 352.335787 
L 109.417625 352.335787 
z
" clip-path="url(#pead4b0da91)" style="fill: #d62728; opacity: 0.8"/>
   </g>
   <g id="patch_37">
    <path d="M 176.425046 387.16 
L 183.870315 387.16 
L 183.870315 347.692559 
L 176.425046 347.692559 
z
" clip-path="url(#pead4b0da91)" style="fill: #d62728; opacity: 0.8"/>
   </g>
   <g id="patch_38">
    <path d="M 243.432468 387.16 
L 250.877737 387.16 
L 250.877737 318.672381 
L 243.432468 318.672381 
z
" clip-path="url(#pead4b0da91)" style="fill: #d62728; opacity: 0.8"/>
   </g>
   <g id="patch_39">
    <path d="M 310.439889 387.16 
L 317.885158 387.16 
L 317.885158 324.476416 
L 310.439889 324.476416 
z
" clip-path="url(#pead4b0da91)" style="fill: #d62728; opacity: 0.8"/>
   </g>
   <g id="patch_40">
    <path d="M 377.44731 387.16 
L 384.892579 387.16 
L 384.892579 295.456239 
L 377.44731 295.456239 
z
" clip-path="url(#pead4b0da91)" style="fill: #d62728; opacity: 0.8"/>
   </g>
   <g id="patch_41">
    <path d="M 444.454731 387.16 
L 451.9 387.16 
L 451.9 268.757676 
L 444.454731 268.757676 
z
" clip-path="url(#pead4b0da91)" style="fill: #d62728; opacity: 0.8"/>
   </g>
   <g id="patch_42">
    <path d="M 511.462152 387.16 
L 518.907421 387.16 
L 518.907421 268.757676 
L 511.462152 268.757676 
z
" clip-path="url(#pead4b0da91)" style="fill: #d62728; opacity: 0.8"/>
   </g>
   <g id="patch_43">
    <path d="M 578.469573 387.16 
L 585.914842 387.16 
L 585.914842 254.82799 
L 578.469573 254.82799 
z
" clip-path="url(#pead4b0da91)" style="fill: #d62728; opacity: 0.8"/>
   </g>
   <g id="patch_44">
    <path d="M 645.476994 387.16 
L 652.922263 387.16 
L 652.922263 231.611848 
L 645.476994 231.611848 
z
" clip-path="url(#pead4b0da91)" style="fill: #d62728; opacity: 0.8"/>
   </g>
   <g id="patch_45">
    <path d="M 712.484416 387.16 
L 719.929685 387.16 
L 719.929685 215.360549 
L 712.484416 215.360549 
z
" clip-path="url(#pead4b0da91)" style="fill: #d62728; opacity: 0.8"/>
   </g>
   <g id="patch_46">
    <path d="M 779.491837 387.16 
L 786.937106 387.16 
L 786.937106 175.893107 
L 779.491837 175.893107 
z
" clip-path="url(#pead4b0da91)" style="fill: #d62728; opacity: 0.8"/>
   </g>
   <g id="patch_47">
    <path d="M 116.862894 387.16 
L 124.308163 387.16 
L 124.308163 344.210137 
L 116.862894 344.210137 
z
" clip-path="url(#pead4b0da91)" style="fill: #9467bd; opacity: 0.8"/>
   </g>
   <g id="patch_48">
    <path d="M 183.870315 387.16 
L 191.315584 387.16 
L 191.315584 336.084487 
L 183.870315 336.084487 
z
" clip-path="url(#pead4b0da91)" style="fill: #9467bd; opacity: 0.8"/>
   </g>
   <g id="patch_49">
    <path d="M 250.877737 387.16 
L 258.323006 387.16 
L 258.323006 334.92368 
L 250.877737 334.92368 
z
" clip-path="url(#pead4b0da91)" style="fill: #9467bd; opacity: 0.8"/>
   </g>
   <g id="patch_50">
    <path d="M 317.885158 387.16 
L 325.330427 387.16 
L 325.330427 305.903503 
L 317.885158 305.903503 
z
" clip-path="url(#pead4b0da91)" style="fill: #9467bd; opacity: 0.8"/>
   </g>
   <g id="patch_51">
    <path d="M 384.892579 387.16 
L 392.337848 387.16 
L 392.337848 294.295432 
L 384.892579 294.295432 
z
" clip-path="url(#pead4b0da91)" style="fill: #9467bd; opacity: 0.8"/>
   </g>
   <g id="patch_52">
    <path d="M 451.9 387.16 
L 459.345269 387.16 
L 459.345269 268.757676 
L 451.9 268.757676 
z
" clip-path="url(#pead4b0da91)" style="fill: #9467bd; opacity: 0.8"/>
   </g>
   <g id="patch_53">
    <path d="M 518.907421 387.16 
L 526.35269 387.16 
L 526.35269 264.114447 
L 518.907421 264.114447 
z
" clip-path="url(#pead4b0da91)" style="fill: #9467bd; opacity: 0.8"/>
   </g>
   <g id="patch_54">
    <path d="M 585.914842 387.16 
L 593.360111 387.16 
L 593.360111 238.576691 
L 585.914842 238.576691 
z
" clip-path="url(#pead4b0da91)" style="fill: #9467bd; opacity: 0.8"/>
   </g>
   <g id="patch_55">
    <path d="M 652.922263 387.16 
L 660.367532 387.16 
L 660.367532 233.933462 
L 652.922263 233.933462 
z
" clip-path="url(#pead4b0da91)" style="fill: #9467bd; opacity: 0.8"/>
   </g>
   <g id="patch_56">
    <path d="M 719.929685 387.16 
L 727.374954 387.16 
L 727.374954 190.9836 
L 719.929685 190.9836 
z
" clip-path="url(#pead4b0da91)" style="fill: #9467bd; opacity: 0.8"/>
   </g>
   <g id="patch_57">
    <path d="M 786.937106 387.16 
L 794.382375 387.16 
L 794.382375 184.018757 
L 786.937106 184.018757 
z
" clip-path="url(#pead4b0da91)" style="fill: #9467bd; opacity: 0.8"/>
   </g>
   <g id="patch_58">
    <path d="M 124.308163 387.16 
L 131.753432 387.16 
L 131.753432 351.17498 
L 124.308163 351.17498 
z
" clip-path="url(#pead4b0da91)" style="fill: #8c564b; opacity: 0.8"/>
   </g>
   <g id="patch_59">
    <path d="M 191.315584 387.16 
L 198.760853 387.16 
L 198.760853 348.853366 
L 191.315584 348.853366 
z
" clip-path="url(#pead4b0da91)" style="fill: #8c564b; opacity: 0.8"/>
   </g>
   <g id="patch_60">
    <path d="M 258.323006 387.16 
L 265.768275 387.16 
L 265.768275 331.441259 
L 258.323006 331.441259 
z
" clip-path="url(#pead4b0da91)" style="fill: #8c564b; opacity: 0.8"/>
   </g>
   <g id="patch_61">
    <path d="M 325.330427 387.16 
L 332.775696 387.16 
L 332.775696 318.672381 
L 325.330427 318.672381 
z
" clip-path="url(#pead4b0da91)" style="fill: #8c564b; opacity: 0.8"/>
   </g>
   <g id="patch_62">
    <path d="M 392.337848 387.16 
L 399.783117 387.16 
L 399.783117 281.526554 
L 392.337848 281.526554 
z
" clip-path="url(#pead4b0da91)" style="fill: #8c564b; opacity: 0.8"/>
   </g>
   <g id="patch_63">
    <path d="M 459.345269 387.16 
L 466.790538 387.16 
L 466.790538 265.275254 
L 459.345269 265.275254 
z
" clip-path="url(#pead4b0da91)" style="fill: #8c564b; opacity: 0.8"/>
   </g>
   <g id="patch_64">
    <path d="M 526.35269 387.16 
L 533.797959 387.16 
L 533.797959 252.506376 
L 526.35269 252.506376 
z
" clip-path="url(#pead4b0da91)" style="fill: #8c564b; opacity: 0.8"/>
   </g>
   <g id="patch_65">
    <path d="M 593.360111 387.16 
L 600.80538 387.16 
L 600.80538 247.863148 
L 593.360111 247.863148 
z
" clip-path="url(#pead4b0da91)" style="fill: #8c564b; opacity: 0.8"/>
   </g>
   <g id="patch_66">
    <path d="M 660.367532 387.16 
L 667.812801 387.16 
L 667.812801 229.290234 
L 660.367532 229.290234 
z
" clip-path="url(#pead4b0da91)" style="fill: #8c564b; opacity: 0.8"/>
   </g>
   <g id="patch_67">
    <path d="M 727.374954 387.16 
L 734.820223 387.16 
L 734.820223 167.767458 
L 727.374954 167.767458 
z
" clip-path="url(#pead4b0da91)" style="fill: #8c564b; opacity: 0.8"/>
   </g>
   <g id="patch_68">
    <path d="M 794.382375 387.16 
L 801.827644 387.16 
L 801.827644 173.571493 
L 794.382375 173.571493 
z
" clip-path="url(#pead4b0da91)" style="fill: #8c564b; opacity: 0.8"/>
   </g>
   <g id="patch_69">
    <path d="M 131.753432 387.16 
L 139.198701 387.16 
L 139.198701 345.370944 
L 131.753432 345.370944 
z
" clip-path="url(#pead4b0da91)" style="fill: #e377c2; opacity: 0.8"/>
   </g>
   <g id="patch_70">
    <path d="M 198.760853 387.16 
L 206.206122 387.16 
L 206.206122 343.04933 
L 198.760853 343.04933 
z
" clip-path="url(#pead4b0da91)" style="fill: #e377c2; opacity: 0.8"/>
   </g>
   <g id="patch_71">
    <path d="M 265.768275 387.16 
L 273.213544 387.16 
L 273.213544 333.762873 
L 265.768275 333.762873 
z
" clip-path="url(#pead4b0da91)" style="fill: #e377c2; opacity: 0.8"/>
   </g>
   <g id="patch_72">
    <path d="M 332.775696 387.16 
L 340.220965 387.16 
L 340.220965 308.225117 
L 332.775696 308.225117 
z
" clip-path="url(#pead4b0da91)" style="fill: #e377c2; opacity: 0.8"/>
   </g>
   <g id="patch_73">
    <path d="M 399.783117 387.16 
L 407.228386 387.16 
L 407.228386 282.687361 
L 399.783117 282.687361 
z
" clip-path="url(#pead4b0da91)" style="fill: #e377c2; opacity: 0.8"/>
   </g>
   <g id="patch_74">
    <path d="M 466.790538 387.16 
L 474.235807 387.16 
L 474.235807 287.330589 
L 466.790538 287.330589 
z
" clip-path="url(#pead4b0da91)" style="fill: #e377c2; opacity: 0.8"/>
   </g>
   <g id="patch_75">
    <path d="M 533.797959 387.16 
L 541.243228 387.16 
L 541.243228 275.722518 
L 533.797959 275.722518 
z
" clip-path="url(#pead4b0da91)" style="fill: #e377c2; opacity: 0.8"/>
   </g>
   <g id="patch_76">
    <path d="M 600.80538 387.16 
L 608.250649 387.16 
L 608.250649 237.415884 
L 600.80538 237.415884 
z
" clip-path="url(#pead4b0da91)" style="fill: #e377c2; opacity: 0.8"/>
   </g>
   <g id="patch_77">
    <path d="M 667.812801 387.16 
L 675.258071 387.16 
L 675.258071 224.647006 
L 667.812801 224.647006 
z
" clip-path="url(#pead4b0da91)" style="fill: #e377c2; opacity: 0.8"/>
   </g>
   <g id="patch_78">
    <path d="M 734.820223 387.16 
L 742.265492 387.16 
L 742.265492 204.913285 
L 734.820223 204.913285 
z
" clip-path="url(#pead4b0da91)" style="fill: #e377c2; opacity: 0.8"/>
   </g>
   <g id="patch_79">
    <path d="M 801.827644 387.16 
L 809.272913 387.16 
L 809.272913 44.721905 
L 801.827644 44.721905 
z
" clip-path="url(#pead4b0da91)" style="fill: #e377c2; opacity: 0.8"/>
   </g>
   <g id="patch_80">
    <path d="M 139.198701 387.16 
L 146.64397 387.16 
L 146.64397 345.370944 
L 139.198701 345.370944 
z
" clip-path="url(#pead4b0da91)" style="fill: #7f7f7f; opacity: 0.8"/>
   </g>
   <g id="patch_81">
    <path d="M 206.206122 387.16 
L 213.651391 387.16 
L 213.651391 338.406102 
L 206.206122 338.406102 
z
" clip-path="url(#pead4b0da91)" style="fill: #7f7f7f; opacity: 0.8"/>
   </g>
   <g id="patch_82">
    <path d="M 273.213544 387.16 
L 280.658813 387.16 
L 280.658813 327.958838 
L 273.213544 327.958838 
z
" clip-path="url(#pead4b0da91)" style="fill: #7f7f7f; opacity: 0.8"/>
   </g>
   <g id="patch_83">
    <path d="M 340.220965 387.16 
L 347.666234 387.16 
L 347.666234 324.476416 
L 340.220965 324.476416 
z
" clip-path="url(#pead4b0da91)" style="fill: #7f7f7f; opacity: 0.8"/>
   </g>
   <g id="patch_84">
    <path d="M 407.228386 387.16 
L 414.673655 387.16 
L 414.673655 296.617046 
L 407.228386 296.617046 
z
" clip-path="url(#pead4b0da91)" style="fill: #7f7f7f; opacity: 0.8"/>
   </g>
   <g id="patch_85">
    <path d="M 474.235807 387.16 
L 481.681076 387.16 
L 481.681076 269.918483 
L 474.235807 269.918483 
z
" clip-path="url(#pead4b0da91)" style="fill: #7f7f7f; opacity: 0.8"/>
   </g>
   <g id="patch_86">
    <path d="M 541.243228 387.16 
L 548.688497 387.16 
L 548.688497 275.722518 
L 541.243228 275.722518 
z
" clip-path="url(#pead4b0da91)" style="fill: #7f7f7f; opacity: 0.8"/>
   </g>
   <g id="patch_87">
    <path d="M 608.250649 387.16 
L 615.695918 387.16 
L 615.695918 260.632026 
L 608.250649 260.632026 
z
" clip-path="url(#pead4b0da91)" style="fill: #7f7f7f; opacity: 0.8"/>
   </g>
   <g id="patch_88">
    <path d="M 675.258071 387.16 
L 682.70334 387.16 
L 682.70334 243.219919 
L 675.258071 243.219919 
z
" clip-path="url(#pead4b0da91)" style="fill: #7f7f7f; opacity: 0.8"/>
   </g>
   <g id="patch_89">
    <path d="M 742.265492 387.16 
L 749.710761 387.16 
L 749.710761 197.948442 
L 742.265492 197.948442 
z
" clip-path="url(#pead4b0da91)" style="fill: #7f7f7f; opacity: 0.8"/>
   </g>
   <g id="patch_90">
    <path d="M 809.272913 387.16 
L 816.718182 387.16 
L 816.718182 167.767458 
L 809.272913 167.767458 
z
" clip-path="url(#pead4b0da91)" style="fill: #7f7f7f; opacity: 0.8"/>
   </g>
   <g id="matplotlib.axis_1">
    <g id="xtick_1">
     <g id="line2d_1">
      <defs>
       <path id="m9503298a38" d="M 0 0 
L 0 3.5 
" style="stroke: #000000; stroke-width: 0.8"/>
      </defs>
      <g>
       <use xlink:href="#m9503298a38" x="90.804453" y="387.16" style="stroke: #000000; stroke-width: 0.8"/>
      </g>
     </g>
     <g id="text_1">
      <!-- 25 -->
      <g transform="translate(84.441953 401.758438) scale(0.1 -0.1)">
       <defs>
        <path id="DejaVuSans-32" d="M 1228 531 
L 3431 531 
L 3431 0 
L 469 0 
L 469 531 
Q 828 903 1448 1529 
Q 2069 2156 2228 2338 
Q 2531 2678 2651 2914 
Q 2772 3150 2772 3378 
Q 2772 3750 2511 3984 
Q 2250 4219 1831 4219 
Q 1534 4219 1204 4116 
Q 875 4013 500 3803 
L 500 4441 
Q 881 4594 1212 4672 
Q 1544 4750 1819 4750 
Q 2544 4750 2975 4387 
Q 3406 4025 3406 3419 
Q 3406 3131 3298 2873 
Q 3191 2616 2906 2266 
Q 2828 2175 2409 1742 
Q 1991 1309 1228 531 
z
" transform="scale(0.015625)"/>
        <path id="DejaVuSans-35" d="M 691 4666 
L 3169 4666 
L 3169 4134 
L 1269 4134 
L 1269 2991 
Q 1406 3038 1543 3061 
Q 1681 3084 1819 3084 
Q 2600 3084 3056 2656 
Q 3513 2228 3513 1497 
Q 3513 744 3044 326 
Q 2575 -91 1722 -91 
Q 1428 -91 1123 -41 
Q 819 9 494 109 
L 494 744 
Q 775 591 1075 516 
Q 1375 441 1709 441 
Q 2250 441 2565 725 
Q 2881 1009 2881 1497 
Q 2881 1984 2565 2268 
Q 2250 2553 1709 2553 
Q 1456 2553 1204 2497 
Q 953 2441 691 2322 
L 691 4666 
z
" transform="scale(0.015625)"/>
       </defs>
       <use xlink:href="#DejaVuSans-32"/>
       <use xlink:href="#DejaVuSans-35" transform="translate(63.623047 0)"/>
      </g>
     </g>
    </g>
    <g id="xtick_2">
     <g id="line2d_2">
      <g>
       <use xlink:href="#m9503298a38" x="157.811874" y="387.16" style="stroke: #000000; stroke-width: 0.8"/>
      </g>
     </g>
     <g id="text_2">
      <!-- 26 -->
      <g transform="translate(151.449374 401.758438) scale(0.1 -0.1)">
       <defs>
        <path id="DejaVuSans-36" d="M 2113 2584 
Q 1688 2584 1439 2293 
Q 1191 2003 1191 1497 
Q 1191 994 1439 701 
Q 1688 409 2113 409 
Q 2538 409 2786 701 
Q 3034 994 3034 1497 
Q 3034 2003 2786 2293 
Q 2538 2584 2113 2584 
z
M 3366 4563 
L 3366 3988 
Q 3128 4100 2886 4159 
Q 2644 4219 2406 4219 
Q 1781 4219 1451 3797 
Q 1122 3375 1075 2522 
Q 1259 2794 1537 2939 
Q 1816 3084 2150 3084 
Q 2853 3084 3261 2657 
Q 3669 2231 3669 1497 
Q 3669 778 3244 343 
Q 2819 -91 2113 -91 
Q 1303 -91 875 529 
Q 447 1150 447 2328 
Q 447 3434 972 4092 
Q 1497 4750 2381 4750 
Q 2619 4750 2861 4703 
Q 3103 4656 3366 4563 
z
" transform="scale(0.015625)"/>
       </defs>
       <use xlink:href="#DejaVuSans-32"/>
       <use xlink:href="#DejaVuSans-36" transform="translate(63.623047 0)"/>
      </g>
     </g>
    </g>
    <g id="xtick_3">
     <g id="line2d_3">
      <g>
       <use xlink:href="#m9503298a38" x="224.819295" y="387.16" style="stroke: #000000; stroke-width: 0.8"/>
      </g>
     </g>
     <g id="text_3">
      <!-- 27 -->
      <g transform="translate(218.456795 401.758438) scale(0.1 -0.1)">
       <defs>
        <path id="DejaVuSans-37" d="M 525 4666 
L 3525 4666 
L 3525 4397 
L 1831 0 
L 1172 0 
L 2766 4134 
L 525 4134 
L 525 4666 
z
" transform="scale(0.015625)"/>
       </defs>
       <use xlink:href="#DejaVuSans-32"/>
       <use xlink:href="#DejaVuSans-37" transform="translate(63.623047 0)"/>
      </g>
     </g>
    </g>
    <g id="xtick_4">
     <g id="line2d_4">
      <g>
       <use xlink:href="#m9503298a38" x="291.826716" y="387.16" style="stroke: #000000; stroke-width: 0.8"/>
      </g>
     </g>
     <g id="text_4">
      <!-- 28 -->
      <g transform="translate(285.464216 401.758438) scale(0.1 -0.1)">
       <defs>
        <path id="DejaVuSans-38" d="M 2034 2216 
Q 1584 2216 1326 1975 
Q 1069 1734 1069 1313 
Q 1069 891 1326 650 
Q 1584 409 2034 409 
Q 2484 409 2743 651 
Q 3003 894 3003 1313 
Q 3003 1734 2745 1975 
Q 2488 2216 2034 2216 
z
M 1403 2484 
Q 997 2584 770 2862 
Q 544 3141 544 3541 
Q 544 4100 942 4425 
Q 1341 4750 2034 4750 
Q 2731 4750 3128 4425 
Q 3525 4100 3525 3541 
Q 3525 3141 3298 2862 
Q 3072 2584 2669 2484 
Q 3125 2378 3379 2068 
Q 3634 1759 3634 1313 
Q 3634 634 3220 271 
Q 2806 -91 2034 -91 
Q 1263 -91 848 271 
Q 434 634 434 1313 
Q 434 1759 690 2068 
Q 947 2378 1403 2484 
z
M 1172 3481 
Q 1172 3119 1398 2916 
Q 1625 2713 2034 2713 
Q 2441 2713 2670 2916 
Q 2900 3119 2900 3481 
Q 2900 3844 2670 4047 
Q 2441 4250 2034 4250 
Q 1625 4250 1398 4047 
Q 1172 3844 1172 3481 
z
" transform="scale(0.015625)"/>
       </defs>
       <use xlink:href="#DejaVuSans-32"/>
       <use xlink:href="#DejaVuSans-38" transform="translate(63.623047 0)"/>
      </g>
     </g>
    </g>
    <g id="xtick_5">
     <g id="line2d_5">
      <g>
       <use xlink:href="#m9503298a38" x="358.834137" y="387.16" style="stroke: #000000; stroke-width: 0.8"/>
      </g>
     </g>
     <g id="text_5">
      <!-- 29 -->
      <g transform="translate(352.471637 401.758438) scale(0.1 -0.1)">
       <defs>
        <path id="DejaVuSans-39" d="M 703 97 
L 703 672 
Q 941 559 1184 500 
Q 1428 441 1663 441 
Q 2288 441 2617 861 
Q 2947 1281 2994 2138 
Q 2813 1869 2534 1725 
Q 2256 1581 1919 1581 
Q 1219 1581 811 2004 
Q 403 2428 403 3163 
Q 403 3881 828 4315 
Q 1253 4750 1959 4750 
Q 2769 4750 3195 4129 
Q 3622 3509 3622 2328 
Q 3622 1225 3098 567 
Q 2575 -91 1691 -91 
Q 1453 -91 1209 -44 
Q 966 3 703 97 
z
M 1959 2075 
Q 2384 2075 2632 2365 
Q 2881 2656 2881 3163 
Q 2881 3666 2632 3958 
Q 2384 4250 1959 4250 
Q 1534 4250 1286 3958 
Q 1038 3666 1038 3163 
Q 1038 2656 1286 2365 
Q 1534 2075 1959 2075 
z
" transform="scale(0.015625)"/>
       </defs>
       <use xlink:href="#DejaVuSans-32"/>
       <use xlink:href="#DejaVuSans-39" transform="translate(63.623047 0)"/>
      </g>
     </g>
    </g>
    <g id="xtick_6">
     <g id="line2d_6">
      <g>
       <use xlink:href="#m9503298a38" x="425.841558" y="387.16" style="stroke: #000000; stroke-width: 0.8"/>
      </g>
     </g>
     <g id="text_6">
      <!-- 30 -->
      <g transform="translate(419.479058 401.758438) scale(0.1 -0.1)">
       <defs>
        <path id="DejaVuSans-33" d="M 2597 2516 
Q 3050 2419 3304 2112 
Q 3559 1806 3559 1356 
Q 3559 666 3084 287 
Q 2609 -91 1734 -91 
Q 1441 -91 1130 -33 
Q 819 25 488 141 
L 488 750 
Q 750 597 1062 519 
Q 1375 441 1716 441 
Q 2309 441 2620 675 
Q 2931 909 2931 1356 
Q 2931 1769 2642 2001 
Q 2353 2234 1838 2234 
L 1294 2234 
L 1294 2753 
L 1863 2753 
Q 2328 2753 2575 2939 
Q 2822 3125 2822 3475 
Q 2822 3834 2567 4026 
Q 2313 4219 1838 4219 
Q 1578 4219 1281 4162 
Q 984 4106 628 3988 
L 628 4550 
Q 988 4650 1302 4700 
Q 1616 4750 1894 4750 
Q 2613 4750 3031 4423 
Q 3450 4097 3450 3541 
Q 3450 3153 3228 2886 
Q 3006 2619 2597 2516 
z
" transform="scale(0.015625)"/>
        <path id="DejaVuSans-30" d="M 2034 4250 
Q 1547 4250 1301 3770 
Q 1056 3291 1056 2328 
Q 1056 1369 1301 889 
Q 1547 409 2034 409 
Q 2525 409 2770 889 
Q 3016 1369 3016 2328 
Q 3016 3291 2770 3770 
Q 2525 4250 2034 4250 
z
M 2034 4750 
Q 2819 4750 3233 4129 
Q 3647 3509 3647 2328 
Q 3647 1150 3233 529 
Q 2819 -91 2034 -91 
Q 1250 -91 836 529 
Q 422 1150 422 2328 
Q 422 3509 836 4129 
Q 1250 4750 2034 4750 
z
" transform="scale(0.015625)"/>
       </defs>
       <use xlink:href="#DejaVuSans-33"/>
       <use xlink:href="#DejaVuSans-30" transform="translate(63.623047 0)"/>
      </g>
     </g>
    </g>
    <g id="xtick_7">
     <g id="line2d_7">
      <g>
       <use xlink:href="#m9503298a38" x="492.84898" y="387.16" style="stroke: #000000; stroke-width: 0.8"/>
      </g>
     </g>
     <g id="text_7">
      <!-- 31 -->
      <g transform="translate(486.48648 401.758438) scale(0.1 -0.1)">
       <defs>
        <path id="DejaVuSans-31" d="M 794 531 
L 1825 531 
L 1825 4091 
L 703 3866 
L 703 4441 
L 1819 4666 
L 2450 4666 
L 2450 531 
L 3481 531 
L 3481 0 
L 794 0 
L 794 531 
z
" transform="scale(0.015625)"/>
       </defs>
       <use xlink:href="#DejaVuSans-33"/>
       <use xlink:href="#DejaVuSans-31" transform="translate(63.623047 0)"/>
      </g>
     </g>
    </g>
    <g id="xtick_8">
     <g id="line2d_8">
      <g>
       <use xlink:href="#m9503298a38" x="559.856401" y="387.16" style="stroke: #000000; stroke-width: 0.8"/>
      </g>
     </g>
     <g id="text_8">
      <!-- 32 -->
      <g transform="translate(553.493901 401.758438) scale(0.1 -0.1)">
       <use xlink:href="#DejaVuSans-33"/>
       <use xlink:href="#DejaVuSans-32" transform="translate(63.623047 0)"/>
      </g>
     </g>
    </g>
    <g id="xtick_9">
     <g id="line2d_9">
      <g>
       <use xlink:href="#m9503298a38" x="626.863822" y="387.16" style="stroke: #000000; stroke-width: 0.8"/>
      </g>
     </g>
     <g id="text_9">
      <!-- 33 -->
      <g transform="translate(620.501322 401.758438) scale(0.1 -0.1)">
       <use xlink:href="#DejaVuSans-33"/>
       <use xlink:href="#DejaVuSans-33" transform="translate(63.623047 0)"/>
      </g>
     </g>
    </g>
    <g id="xtick_10">
     <g id="line2d_10">
      <g>
       <use xlink:href="#m9503298a38" x="693.871243" y="387.16" style="stroke: #000000; stroke-width: 0.8"/>
      </g>
     </g>
     <g id="text_10">
      <!-- 34 -->
      <g transform="translate(687.508743 401.758438) scale(0.1 -0.1)">
       <defs>
        <path id="DejaVuSans-34" d="M 2419 4116 
L 825 1625 
L 2419 1625 
L 2419 4116 
z
M 2253 4666 
L 3047 4666 
L 3047 1625 
L 3713 1625 
L 3713 1100 
L 3047 1100 
L 3047 0 
L 2419 0 
L 2419 1100 
L 313 1100 
L 313 1709 
L 2253 4666 
z
" transform="scale(0.015625)"/>
       </defs>
       <use xlink:href="#DejaVuSans-33"/>
       <use xlink:href="#DejaVuSans-34" transform="translate(63.623047 0)"/>
      </g>
     </g>
    </g>
    <g id="xtick_11">
     <g id="line2d_11">
      <g>
       <use xlink:href="#m9503298a38" x="760.878664" y="387.16" style="stroke: #000000; stroke-width: 0.8"/>
      </g>
     </g>
     <g id="text_11">
      <!-- 35 -->
      <g transform="translate(754.516164 401.758438) scale(0.1 -0.1)">
       <use xlink:href="#DejaVuSans-33"/>
       <use xlink:href="#DejaVuSans-35" transform="translate(63.623047 0)"/>
      </g>
     </g>
    </g>
    <g id="text_12">
     <!-- K-Value -->
     <g transform="translate(430.305625 416.95625) scale(0.12 -0.12)">
      <defs>
       <path id="DejaVuSans-4b" d="M 628 4666 
L 1259 4666 
L 1259 2694 
L 3353 4666 
L 4166 4666 
L 1850 2491 
L 4331 0 
L 3500 0 
L 1259 2247 
L 1259 0 
L 628 0 
L 628 4666 
z
" transform="scale(0.015625)"/>
       <path id="DejaVuSans-2d" d="M 313 2009 
L 1997 2009 
L 1997 1497 
L 313 1497 
L 313 2009 
z
" transform="scale(0.015625)"/>
       <path id="DejaVuSans-56" d="M 1831 0 
L 50 4666 
L 709 4666 
L 2188 738 
L 3669 4666 
L 4325 4666 
L 2547 0 
L 1831 0 
z
" transform="scale(0.015625)"/>
       <path id="DejaVuSans-61" d="M 2194 1759 
Q 1497 1759 1228 1600 
Q 959 1441 959 1056 
Q 959 750 1161 570 
Q 1363 391 1709 391 
Q 2188 391 2477 730 
Q 2766 1069 2766 1631 
L 2766 1759 
L 2194 1759 
z
M 3341 1997 
L 3341 0 
L 2766 0 
L 2766 531 
Q 2569 213 2275 61 
Q 1981 -91 1556 -91 
Q 1019 -91 701 211 
Q 384 513 384 1019 
Q 384 1609 779 1909 
Q 1175 2209 1959 2209 
L 2766 2209 
L 2766 2266 
Q 2766 2663 2505 2880 
Q 2244 3097 1772 3097 
Q 1472 3097 1187 3025 
Q 903 2953 641 2809 
L 641 3341 
Q 956 3463 1253 3523 
Q 1550 3584 1831 3584 
Q 2591 3584 2966 3190 
Q 3341 2797 3341 1997 
z
" transform="scale(0.015625)"/>
       <path id="DejaVuSans-6c" d="M 603 4863 
L 1178 4863 
L 1178 0 
L 603 0 
L 603 4863 
z
" transform="scale(0.015625)"/>
       <path id="DejaVuSans-75" d="M 544 1381 
L 544 3500 
L 1119 3500 
L 1119 1403 
Q 1119 906 1312 657 
Q 1506 409 1894 409 
Q 2359 409 2629 706 
Q 2900 1003 2900 1516 
L 2900 3500 
L 3475 3500 
L 3475 0 
L 2900 0 
L 2900 538 
Q 2691 219 2414 64 
Q 2138 -91 1772 -91 
Q 1169 -91 856 284 
Q 544 659 544 1381 
z
M 1991 3584 
L 1991 3584 
z
" transform="scale(0.015625)"/>
       <path id="DejaVuSans-65" d="M 3597 1894 
L 3597 1613 
L 953 1613 
Q 991 1019 1311 708 
Q 1631 397 2203 397 
Q 2534 397 2845 478 
Q 3156 559 3463 722 
L 3463 178 
Q 3153 47 2828 -22 
Q 2503 -91 2169 -91 
Q 1331 -91 842 396 
Q 353 884 353 1716 
Q 353 2575 817 3079 
Q 1281 3584 2069 3584 
Q 2775 3584 3186 3129 
Q 3597 2675 3597 1894 
z
M 3022 2063 
Q 3016 2534 2758 2815 
Q 2500 3097 2075 3097 
Q 1594 3097 1305 2825 
Q 1016 2553 972 2059 
L 3022 2063 
z
" transform="scale(0.015625)"/>
      </defs>
      <use xlink:href="#DejaVuSans-4b"/>
      <use xlink:href="#DejaVuSans-2d" transform="translate(55.076172 0)"/>
      <use xlink:href="#DejaVuSans-56" transform="translate(85.285156 0)"/>
      <use xlink:href="#DejaVuSans-61" transform="translate(145.943359 0)"/>
      <use xlink:href="#DejaVuSans-6c" transform="translate(207.222656 0)"/>
      <use xlink:href="#DejaVuSans-75" transform="translate(235.005859 0)"/>
      <use xlink:href="#DejaVuSans-65" transform="translate(298.384766 0)"/>
     </g>
    </g>
   </g>
   <g id="matplotlib.axis_2">
    <g id="ytick_1">
     <g id="line2d_12">
      <defs>
       <path id="mda7658c378" d="M 0 0 
L -3.5 0 
" style="stroke: #000000; stroke-width: 0.8"/>
      </defs>
      <g>
       <use xlink:href="#mda7658c378" x="50.6" y="387.16" style="stroke: #000000; stroke-width: 0.8"/>
      </g>
     </g>
     <g id="text_13">
      <!-- 0.0 -->
      <g transform="translate(27.696875 390.959219) scale(0.1 -0.1)">
       <defs>
        <path id="DejaVuSans-2e" d="M 684 794 
L 1344 794 
L 1344 0 
L 684 0 
L 684 794 
z
" transform="scale(0.015625)"/>
       </defs>
       <use xlink:href="#DejaVuSans-30"/>
       <use xlink:href="#DejaVuSans-2e" transform="translate(63.623047 0)"/>
       <use xlink:href="#DejaVuSans-30" transform="translate(95.410156 0)"/>
      </g>
     </g>
    </g>
    <g id="ytick_2">
     <g id="line2d_13">
      <g>
       <use xlink:href="#mda7658c378" x="50.6" y="329.119645" style="stroke: #000000; stroke-width: 0.8"/>
      </g>
     </g>
     <g id="text_14">
      <!-- 0.5 -->
      <g transform="translate(27.696875 332.918864) scale(0.1 -0.1)">
       <use xlink:href="#DejaVuSans-30"/>
       <use xlink:href="#DejaVuSans-2e" transform="translate(63.623047 0)"/>
       <use xlink:href="#DejaVuSans-35" transform="translate(95.410156 0)"/>
      </g>
     </g>
    </g>
    <g id="ytick_3">
     <g id="line2d_14">
      <g>
       <use xlink:href="#mda7658c378" x="50.6" y="271.07929" style="stroke: #000000; stroke-width: 0.8"/>
      </g>
     </g>
     <g id="text_15">
      <!-- 1.0 -->
      <g transform="translate(27.696875 274.878508) scale(0.1 -0.1)">
       <use xlink:href="#DejaVuSans-31"/>
       <use xlink:href="#DejaVuSans-2e" transform="translate(63.623047 0)"/>
       <use xlink:href="#DejaVuSans-30" transform="translate(95.410156 0)"/>
      </g>
     </g>
    </g>
    <g id="ytick_4">
     <g id="line2d_15">
      <g>
       <use xlink:href="#mda7658c378" x="50.6" y="213.038935" style="stroke: #000000; stroke-width: 0.8"/>
      </g>
     </g>
     <g id="text_16">
      <!-- 1.5 -->
      <g transform="translate(27.696875 216.838153) scale(0.1 -0.1)">
       <use xlink:href="#DejaVuSans-31"/>
       <use xlink:href="#DejaVuSans-2e" transform="translate(63.623047 0)"/>
       <use xlink:href="#DejaVuSans-35" transform="translate(95.410156 0)"/>
      </g>
     </g>
    </g>
    <g id="ytick_5">
     <g id="line2d_16">
      <g>
       <use xlink:href="#mda7658c378" x="50.6" y="154.998579" style="stroke: #000000; stroke-width: 0.8"/>
      </g>
     </g>
     <g id="text_17">
      <!-- 2.0 -->
      <g transform="translate(27.696875 158.797798) scale(0.1 -0.1)">
       <use xlink:href="#DejaVuSans-32"/>
       <use xlink:href="#DejaVuSans-2e" transform="translate(63.623047 0)"/>
       <use xlink:href="#DejaVuSans-30" transform="translate(95.410156 0)"/>
      </g>
     </g>
    </g>
    <g id="ytick_6">
     <g id="line2d_17">
      <g>
       <use xlink:href="#mda7658c378" x="50.6" y="96.958224" style="stroke: #000000; stroke-width: 0.8"/>
      </g>
     </g>
     <g id="text_18">
      <!-- 2.5 -->
      <g transform="translate(27.696875 100.757443) scale(0.1 -0.1)">
       <use xlink:href="#DejaVuSans-32"/>
       <use xlink:href="#DejaVuSans-2e" transform="translate(63.623047 0)"/>
       <use xlink:href="#DejaVuSans-35" transform="translate(95.410156 0)"/>
      </g>
     </g>
    </g>
    <g id="ytick_7">
     <g id="line2d_18">
      <g>
       <use xlink:href="#mda7658c378" x="50.6" y="38.917869" style="stroke: #000000; stroke-width: 0.8"/>
      </g>
     </g>
     <g id="text_19">
      <!-- 3.0 -->
      <g transform="translate(27.696875 42.717088) scale(0.1 -0.1)">
       <use xlink:href="#DejaVuSans-33"/>
       <use xlink:href="#DejaVuSans-2e" transform="translate(63.623047 0)"/>
       <use xlink:href="#DejaVuSans-30" transform="translate(95.410156 0)"/>
      </g>
     </g>
    </g>
    <g id="text_20">
     <!-- Average Lookup Time (ms) -->
     <g transform="translate(21.20125 287.55125) rotate(-90) scale(0.12 -0.12)">
      <defs>
       <path id="DejaVuSans-41" d="M 2188 4044 
L 1331 1722 
L 3047 1722 
L 2188 4044 
z
M 1831 4666 
L 2547 4666 
L 4325 0 
L 3669 0 
L 3244 1197 
L 1141 1197 
L 716 0 
L 50 0 
L 1831 4666 
z
" transform="scale(0.015625)"/>
       <path id="DejaVuSans-76" d="M 191 3500 
L 800 3500 
L 1894 563 
L 2988 3500 
L 3597 3500 
L 2284 0 
L 1503 0 
L 191 3500 
z
" transform="scale(0.015625)"/>
       <path id="DejaVuSans-72" d="M 2631 2963 
Q 2534 3019 2420 3045 
Q 2306 3072 2169 3072 
Q 1681 3072 1420 2755 
Q 1159 2438 1159 1844 
L 1159 0 
L 581 0 
L 581 3500 
L 1159 3500 
L 1159 2956 
Q 1341 3275 1631 3429 
Q 1922 3584 2338 3584 
Q 2397 3584 2469 3576 
Q 2541 3569 2628 3553 
L 2631 2963 
z
" transform="scale(0.015625)"/>
       <path id="DejaVuSans-67" d="M 2906 1791 
Q 2906 2416 2648 2759 
Q 2391 3103 1925 3103 
Q 1463 3103 1205 2759 
Q 947 2416 947 1791 
Q 947 1169 1205 825 
Q 1463 481 1925 481 
Q 2391 481 2648 825 
Q 2906 1169 2906 1791 
z
M 3481 434 
Q 3481 -459 3084 -895 
Q 2688 -1331 1869 -1331 
Q 1566 -1331 1297 -1286 
Q 1028 -1241 775 -1147 
L 775 -588 
Q 1028 -725 1275 -790 
Q 1522 -856 1778 -856 
Q 2344 -856 2625 -561 
Q 2906 -266 2906 331 
L 2906 616 
Q 2728 306 2450 153 
Q 2172 0 1784 0 
Q 1141 0 747 490 
Q 353 981 353 1791 
Q 353 2603 747 3093 
Q 1141 3584 1784 3584 
Q 2172 3584 2450 3431 
Q 2728 3278 2906 2969 
L 2906 3500 
L 3481 3500 
L 3481 434 
z
" transform="scale(0.015625)"/>
       <path id="DejaVuSans-20" transform="scale(0.015625)"/>
       <path id="DejaVuSans-4c" d="M 628 4666 
L 1259 4666 
L 1259 531 
L 3531 531 
L 3531 0 
L 628 0 
L 628 4666 
z
" transform="scale(0.015625)"/>
       <path id="DejaVuSans-6f" d="M 1959 3097 
Q 1497 3097 1228 2736 
Q 959 2375 959 1747 
Q 959 1119 1226 758 
Q 1494 397 1959 397 
Q 2419 397 2687 759 
Q 2956 1122 2956 1747 
Q 2956 2369 2687 2733 
Q 2419 3097 1959 3097 
z
M 1959 3584 
Q 2709 3584 3137 3096 
Q 3566 2609 3566 1747 
Q 3566 888 3137 398 
Q 2709 -91 1959 -91 
Q 1206 -91 779 398 
Q 353 888 353 1747 
Q 353 2609 779 3096 
Q 1206 3584 1959 3584 
z
" transform="scale(0.015625)"/>
       <path id="DejaVuSans-6b" d="M 581 4863 
L 1159 4863 
L 1159 1991 
L 2875 3500 
L 3609 3500 
L 1753 1863 
L 3688 0 
L 2938 0 
L 1159 1709 
L 1159 0 
L 581 0 
L 581 4863 
z
" transform="scale(0.015625)"/>
       <path id="DejaVuSans-70" d="M 1159 525 
L 1159 -1331 
L 581 -1331 
L 581 3500 
L 1159 3500 
L 1159 2969 
Q 1341 3281 1617 3432 
Q 1894 3584 2278 3584 
Q 2916 3584 3314 3078 
Q 3713 2572 3713 1747 
Q 3713 922 3314 415 
Q 2916 -91 2278 -91 
Q 1894 -91 1617 61 
Q 1341 213 1159 525 
z
M 3116 1747 
Q 3116 2381 2855 2742 
Q 2594 3103 2138 3103 
Q 1681 3103 1420 2742 
Q 1159 2381 1159 1747 
Q 1159 1113 1420 752 
Q 1681 391 2138 391 
Q 2594 391 2855 752 
Q 3116 1113 3116 1747 
z
" transform="scale(0.015625)"/>
       <path id="DejaVuSans-54" d="M -19 4666 
L 3928 4666 
L 3928 4134 
L 2272 4134 
L 2272 0 
L 1638 0 
L 1638 4134 
L -19 4134 
L -19 4666 
z
" transform="scale(0.015625)"/>
       <path id="DejaVuSans-69" d="M 603 3500 
L 1178 3500 
L 1178 0 
L 603 0 
L 603 3500 
z
M 603 4863 
L 1178 4863 
L 1178 4134 
L 603 4134 
L 603 4863 
z
" transform="scale(0.015625)"/>
       <path id="DejaVuSans-6d" d="M 3328 2828 
Q 3544 3216 3844 3400 
Q 4144 3584 4550 3584 
Q 5097 3584 5394 3201 
Q 5691 2819 5691 2113 
L 5691 0 
L 5113 0 
L 5113 2094 
Q 5113 2597 4934 2840 
Q 4756 3084 4391 3084 
Q 3944 3084 3684 2787 
Q 3425 2491 3425 1978 
L 3425 0 
L 2847 0 
L 2847 2094 
Q 2847 2600 2669 2842 
Q 2491 3084 2119 3084 
Q 1678 3084 1418 2786 
Q 1159 2488 1159 1978 
L 1159 0 
L 581 0 
L 581 3500 
L 1159 3500 
L 1159 2956 
Q 1356 3278 1631 3431 
Q 1906 3584 2284 3584 
Q 2666 3584 2933 3390 
Q 3200 3197 3328 2828 
z
" transform="scale(0.015625)"/>
       <path id="DejaVuSans-28" d="M 1984 4856 
Q 1566 4138 1362 3434 
Q 1159 2731 1159 2009 
Q 1159 1288 1364 580 
Q 1569 -128 1984 -844 
L 1484 -844 
Q 1016 -109 783 600 
Q 550 1309 550 2009 
Q 550 2706 781 3412 
Q 1013 4119 1484 4856 
L 1984 4856 
z
" transform="scale(0.015625)"/>
       <path id="DejaVuSans-73" d="M 2834 3397 
L 2834 2853 
Q 2591 2978 2328 3040 
Q 2066 3103 1784 3103 
Q 1356 3103 1142 2972 
Q 928 2841 928 2578 
Q 928 2378 1081 2264 
Q 1234 2150 1697 2047 
L 1894 2003 
Q 2506 1872 2764 1633 
Q 3022 1394 3022 966 
Q 3022 478 2636 193 
Q 2250 -91 1575 -91 
Q 1294 -91 989 -36 
Q 684 19 347 128 
L 347 722 
Q 666 556 975 473 
Q 1284 391 1588 391 
Q 1994 391 2212 530 
Q 2431 669 2431 922 
Q 2431 1156 2273 1281 
Q 2116 1406 1581 1522 
L 1381 1569 
Q 847 1681 609 1914 
Q 372 2147 372 2553 
Q 372 3047 722 3315 
Q 1072 3584 1716 3584 
Q 2034 3584 2315 3537 
Q 2597 3491 2834 3397 
z
" transform="scale(0.015625)"/>
       <path id="DejaVuSans-29" d="M 513 4856 
L 1013 4856 
Q 1481 4119 1714 3412 
Q 1947 2706 1947 2009 
Q 1947 1309 1714 600 
Q 1481 -109 1013 -844 
L 513 -844 
Q 928 -128 1133 580 
Q 1338 1288 1338 2009 
Q 1338 2731 1133 3434 
Q 928 4138 513 4856 
z
" transform="scale(0.015625)"/>
      </defs>
      <use xlink:href="#DejaVuSans-41"/>
      <use xlink:href="#DejaVuSans-76" transform="translate(62.533203 0)"/>
      <use xlink:href="#DejaVuSans-65" transform="translate(121.712891 0)"/>
      <use xlink:href="#DejaVuSans-72" transform="translate(183.236328 0)"/>
      <use xlink:href="#DejaVuSans-61" transform="translate(224.349609 0)"/>
      <use xlink:href="#DejaVuSans-67" transform="translate(285.628906 0)"/>
      <use xlink:href="#DejaVuSans-65" transform="translate(349.105469 0)"/>
      <use xlink:href="#DejaVuSans-20" transform="translate(410.628906 0)"/>
      <use xlink:href="#DejaVuSans-4c" transform="translate(442.416016 0)"/>
      <use xlink:href="#DejaVuSans-6f" transform="translate(496.378906 0)"/>
      <use xlink:href="#DejaVuSans-6f" transform="translate(557.560547 0)"/>
      <use xlink:href="#DejaVuSans-6b" transform="translate(618.742188 0)"/>
      <use xlink:href="#DejaVuSans-75" transform="translate(673.527344 0)"/>
      <use xlink:href="#DejaVuSans-70" transform="translate(736.90625 0)"/>
      <use xlink:href="#DejaVuSans-20" transform="translate(800.382812 0)"/>
      <use xlink:href="#DejaVuSans-54" transform="translate(832.169922 0)"/>
      <use xlink:href="#DejaVuSans-69" transform="translate(890.128906 0)"/>
      <use xlink:href="#DejaVuSans-6d" transform="translate(917.912109 0)"/>
      <use xlink:href="#DejaVuSans-65" transform="translate(1015.324219 0)"/>
      <use xlink:href="#DejaVuSans-20" transform="translate(1076.847656 0)"/>
      <use xlink:href="#DejaVuSans-28" transform="translate(1108.634766 0)"/>
      <use xlink:href="#DejaVuSans-6d" transform="translate(1147.648438 0)"/>
      <use xlink:href="#DejaVuSans-73" transform="translate(1245.060547 0)"/>
      <use xlink:href="#DejaVuSans-29" transform="translate(1297.160156 0)"/>
     </g>
    </g>
   </g>
   <g id="patch_91">
    <path d="M 50.6 387.16 
L 50.6 27.6 
" style="fill: none; stroke: #000000; stroke-width: 0.8; stroke-linejoin: miter; stroke-linecap: square"/>
   </g>
   <g id="patch_92">
    <path d="M 853.2 387.16 
L 853.2 27.6 
" style="fill: none; stroke: #000000; stroke-width: 0.8; stroke-linejoin: miter; stroke-linecap: square"/>
   </g>
   <g id="patch_93">
    <path d="M 50.6 387.16 
L 853.2 387.16 
" style="fill: none; stroke: #000000; stroke-width: 0.8; stroke-linejoin: miter; stroke-linecap: square"/>
   </g>
   <g id="patch_94">
    <path d="M 50.6 27.6 
L 853.2 27.6 
" style="fill: none; stroke: #000000; stroke-width: 0.8; stroke-linejoin: miter; stroke-linecap: square"/>
   </g>
   <g id="text_21">
    <!-- NVMe Lookup Time - opi5 -->
    <g transform="translate(362.792188 21.6) scale(0.14 -0.14)">
     <defs>
      <path id="DejaVuSans-4e" d="M 628 4666 
L 1478 4666 
L 3547 763 
L 3547 4666 
L 4159 4666 
L 4159 0 
L 3309 0 
L 1241 3903 
L 1241 0 
L 628 0 
L 628 4666 
z
" transform="scale(0.015625)"/>
      <path id="DejaVuSans-4d" d="M 628 4666 
L 1569 4666 
L 2759 1491 
L 3956 4666 
L 4897 4666 
L 4897 0 
L 4281 0 
L 4281 4097 
L 3078 897 
L 2444 897 
L 1241 4097 
L 1241 0 
L 628 0 
L 628 4666 
z
" transform="scale(0.015625)"/>
     </defs>
     <use xlink:href="#DejaVuSans-4e"/>
     <use xlink:href="#DejaVuSans-56" transform="translate(74.804688 0)"/>
     <use xlink:href="#DejaVuSans-4d" transform="translate(143.212891 0)"/>
     <use xlink:href="#DejaVuSans-65" transform="translate(229.492188 0)"/>
     <use xlink:href="#DejaVuSans-20" transform="translate(291.015625 0)"/>
     <use xlink:href="#DejaVuSans-4c" transform="translate(322.802734 0)"/>
     <use xlink:href="#DejaVuSans-6f" transform="translate(376.765625 0)"/>
     <use xlink:href="#DejaVuSans-6f" transform="translate(437.947266 0)"/>
     <use xlink:href="#DejaVuSans-6b" transform="translate(499.128906 0)"/>
     <use xlink:href="#DejaVuSans-75" transform="translate(553.914062 0)"/>
     <use xlink:href="#DejaVuSans-70" transform="translate(617.292969 0)"/>
     <use xlink:href="#DejaVuSans-20" transform="translate(680.769531 0)"/>
     <use xlink:href="#DejaVuSans-54" transform="translate(712.556641 0)"/>
     <use xlink:href="#DejaVuSans-69" transform="translate(770.515625 0)"/>
     <use xlink:href="#DejaVuSans-6d" transform="translate(798.298828 0)"/>
     <use xlink:href="#DejaVuSans-65" transform="translate(895.710938 0)"/>
     <use xlink:href="#DejaVuSans-20" transform="translate(957.234375 0)"/>
     <use xlink:href="#DejaVuSans-2d" transform="translate(989.021484 0)"/>
     <use xlink:href="#DejaVuSans-20" transform="translate(1025.105469 0)"/>
     <use xlink:href="#DejaVuSans-6f" transform="translate(1056.892578 0)"/>
     <use xlink:href="#DejaVuSans-70" transform="translate(1118.074219 0)"/>
     <use xlink:href="#DejaVuSans-69" transform="translate(1181.550781 0)"/>
     <use xlink:href="#DejaVuSans-35" transform="translate(1209.333984 0)"/>
    </g>
   </g>
   <g id="legend_1">
    <g id="patch_95">
     <path d="M 57.6 155.25 
L 156.226562 155.25 
Q 158.226562 155.25 158.226562 153.25 
L 158.226562 34.6 
Q 158.226562 32.6 156.226562 32.6 
L 57.6 32.6 
Q 55.6 32.6 55.6 34.6 
L 55.6 153.25 
Q 55.6 155.25 57.6 155.25 
z
" style="fill: #ffffff; opacity: 0.8; stroke: #cccccc; stroke-linejoin: miter"/>
    </g>
    <g id="patch_96">
     <path d="M 59.6 44.198438 
L 79.6 44.198438 
L 79.6 37.198438 
L 59.6 37.198438 
z
" style="fill: #1f77b4; opacity: 0.8"/>
    </g>
    <g id="text_22">
     <!-- Hash_Size 3 -->
     <g transform="translate(87.6 44.198438) scale(0.1 -0.1)">
      <defs>
       <path id="DejaVuSans-48" d="M 628 4666 
L 1259 4666 
L 1259 2753 
L 3553 2753 
L 3553 4666 
L 4184 4666 
L 4184 0 
L 3553 0 
L 3553 2222 
L 1259 2222 
L 1259 0 
L 628 0 
L 628 4666 
z
" transform="scale(0.015625)"/>
       <path id="DejaVuSans-68" d="M 3513 2113 
L 3513 0 
L 2938 0 
L 2938 2094 
Q 2938 2591 2744 2837 
Q 2550 3084 2163 3084 
Q 1697 3084 1428 2787 
Q 1159 2491 1159 1978 
L 1159 0 
L 581 0 
L 581 4863 
L 1159 4863 
L 1159 2956 
Q 1366 3272 1645 3428 
Q 1925 3584 2291 3584 
Q 2894 3584 3203 3211 
Q 3513 2838 3513 2113 
z
" transform="scale(0.015625)"/>
       <path id="DejaVuSans-5f" d="M 3263 -1063 
L 3263 -1509 
L -63 -1509 
L -63 -1063 
L 3263 -1063 
z
" transform="scale(0.015625)"/>
       <path id="DejaVuSans-53" d="M 3425 4513 
L 3425 3897 
Q 3066 4069 2747 4153 
Q 2428 4238 2131 4238 
Q 1616 4238 1336 4038 
Q 1056 3838 1056 3469 
Q 1056 3159 1242 3001 
Q 1428 2844 1947 2747 
L 2328 2669 
Q 3034 2534 3370 2195 
Q 3706 1856 3706 1288 
Q 3706 609 3251 259 
Q 2797 -91 1919 -91 
Q 1588 -91 1214 -16 
Q 841 59 441 206 
L 441 856 
Q 825 641 1194 531 
Q 1563 422 1919 422 
Q 2459 422 2753 634 
Q 3047 847 3047 1241 
Q 3047 1584 2836 1778 
Q 2625 1972 2144 2069 
L 1759 2144 
Q 1053 2284 737 2584 
Q 422 2884 422 3419 
Q 422 4038 858 4394 
Q 1294 4750 2059 4750 
Q 2388 4750 2728 4690 
Q 3069 4631 3425 4513 
z
" transform="scale(0.015625)"/>
       <path id="DejaVuSans-7a" d="M 353 3500 
L 3084 3500 
L 3084 2975 
L 922 459 
L 3084 459 
L 3084 0 
L 275 0 
L 275 525 
L 2438 3041 
L 353 3041 
L 353 3500 
z
" transform="scale(0.015625)"/>
      </defs>
      <use xlink:href="#DejaVuSans-48"/>
      <use xlink:href="#DejaVuSans-61" transform="translate(75.195312 0)"/>
      <use xlink:href="#DejaVuSans-73" transform="translate(136.474609 0)"/>
      <use xlink:href="#DejaVuSans-68" transform="translate(188.574219 0)"/>
      <use xlink:href="#DejaVuSans-5f" transform="translate(251.953125 0)"/>
      <use xlink:href="#DejaVuSans-53" transform="translate(301.953125 0)"/>
      <use xlink:href="#DejaVuSans-69" transform="translate(365.429688 0)"/>
      <use xlink:href="#DejaVuSans-7a" transform="translate(393.212891 0)"/>
      <use xlink:href="#DejaVuSans-65" transform="translate(445.703125 0)"/>
      <use xlink:href="#DejaVuSans-20" transform="translate(507.226562 0)"/>
      <use xlink:href="#DejaVuSans-33" transform="translate(539.013672 0)"/>
     </g>
    </g>
    <g id="patch_97">
     <path d="M 59.6 59.154688 
L 79.6 59.154688 
L 79.6 52.154688 
L 59.6 52.154688 
z
" style="fill: #ff7f0e; opacity: 0.8"/>
    </g>
    <g id="text_23">
     <!-- Hash_Size 4 -->
     <g transform="translate(87.6 59.154688) scale(0.1 -0.1)">
      <use xlink:href="#DejaVuSans-48"/>
      <use xlink:href="#DejaVuSans-61" transform="translate(75.195312 0)"/>
      <use xlink:href="#DejaVuSans-73" transform="translate(136.474609 0)"/>
      <use xlink:href="#DejaVuSans-68" transform="translate(188.574219 0)"/>
      <use xlink:href="#DejaVuSans-5f" transform="translate(251.953125 0)"/>
      <use xlink:href="#DejaVuSans-53" transform="translate(301.953125 0)"/>
      <use xlink:href="#DejaVuSans-69" transform="translate(365.429688 0)"/>
      <use xlink:href="#DejaVuSans-7a" transform="translate(393.212891 0)"/>
      <use xlink:href="#DejaVuSans-65" transform="translate(445.703125 0)"/>
      <use xlink:href="#DejaVuSans-20" transform="translate(507.226562 0)"/>
      <use xlink:href="#DejaVuSans-34" transform="translate(539.013672 0)"/>
     </g>
    </g>
    <g id="patch_98">
     <path d="M 59.6 74.110937 
L 79.6 74.110937 
L 79.6 67.110937 
L 59.6 67.110937 
z
" style="fill: #2ca02c; opacity: 0.8"/>
    </g>
    <g id="text_24">
     <!-- Hash_Size 5 -->
     <g transform="translate(87.6 74.110937) scale(0.1 -0.1)">
      <use xlink:href="#DejaVuSans-48"/>
      <use xlink:href="#DejaVuSans-61" transform="translate(75.195312 0)"/>
      <use xlink:href="#DejaVuSans-73" transform="translate(136.474609 0)"/>
      <use xlink:href="#DejaVuSans-68" transform="translate(188.574219 0)"/>
      <use xlink:href="#DejaVuSans-5f" transform="translate(251.953125 0)"/>
      <use xlink:href="#DejaVuSans-53" transform="translate(301.953125 0)"/>
      <use xlink:href="#DejaVuSans-69" transform="translate(365.429688 0)"/>
      <use xlink:href="#DejaVuSans-7a" transform="translate(393.212891 0)"/>
      <use xlink:href="#DejaVuSans-65" transform="translate(445.703125 0)"/>
      <use xlink:href="#DejaVuSans-20" transform="translate(507.226562 0)"/>
      <use xlink:href="#DejaVuSans-35" transform="translate(539.013672 0)"/>
     </g>
    </g>
    <g id="patch_99">
     <path d="M 59.6 89.067188 
L 79.6 89.067188 
L 79.6 82.067188 
L 59.6 82.067188 
z
" style="fill: #d62728; opacity: 0.8"/>
    </g>
    <g id="text_25">
     <!-- Hash_Size 6 -->
     <g transform="translate(87.6 89.067188) scale(0.1 -0.1)">
      <use xlink:href="#DejaVuSans-48"/>
      <use xlink:href="#DejaVuSans-61" transform="translate(75.195312 0)"/>
      <use xlink:href="#DejaVuSans-73" transform="translate(136.474609 0)"/>
      <use xlink:href="#DejaVuSans-68" transform="translate(188.574219 0)"/>
      <use xlink:href="#DejaVuSans-5f" transform="translate(251.953125 0)"/>
      <use xlink:href="#DejaVuSans-53" transform="translate(301.953125 0)"/>
      <use xlink:href="#DejaVuSans-69" transform="translate(365.429688 0)"/>
      <use xlink:href="#DejaVuSans-7a" transform="translate(393.212891 0)"/>
      <use xlink:href="#DejaVuSans-65" transform="translate(445.703125 0)"/>
      <use xlink:href="#DejaVuSans-20" transform="translate(507.226562 0)"/>
      <use xlink:href="#DejaVuSans-36" transform="translate(539.013672 0)"/>
     </g>
    </g>
    <g id="patch_100">
     <path d="M 59.6 104.023438 
L 79.6 104.023438 
L 79.6 97.023438 
L 59.6 97.023438 
z
" style="fill: #9467bd; opacity: 0.8"/>
    </g>
    <g id="text_26">
     <!-- Hash_Size 7 -->
     <g transform="translate(87.6 104.023438) scale(0.1 -0.1)">
      <use xlink:href="#DejaVuSans-48"/>
      <use xlink:href="#DejaVuSans-61" transform="translate(75.195312 0)"/>
      <use xlink:href="#DejaVuSans-73" transform="translate(136.474609 0)"/>
      <use xlink:href="#DejaVuSans-68" transform="translate(188.574219 0)"/>
      <use xlink:href="#DejaVuSans-5f" transform="translate(251.953125 0)"/>
      <use xlink:href="#DejaVuSans-53" transform="translate(301.953125 0)"/>
      <use xlink:href="#DejaVuSans-69" transform="translate(365.429688 0)"/>
      <use xlink:href="#DejaVuSans-7a" transform="translate(393.212891 0)"/>
      <use xlink:href="#DejaVuSans-65" transform="translate(445.703125 0)"/>
      <use xlink:href="#DejaVuSans-20" transform="translate(507.226562 0)"/>
      <use xlink:href="#DejaVuSans-37" transform="translate(539.013672 0)"/>
     </g>
    </g>
    <g id="patch_101">
     <path d="M 59.6 118.979688 
L 79.6 118.979688 
L 79.6 111.979688 
L 59.6 111.979688 
z
" style="fill: #8c564b; opacity: 0.8"/>
    </g>
    <g id="text_27">
     <!-- Hash_Size 8 -->
     <g transform="translate(87.6 118.979688) scale(0.1 -0.1)">
      <use xlink:href="#DejaVuSans-48"/>
      <use xlink:href="#DejaVuSans-61" transform="translate(75.195312 0)"/>
      <use xlink:href="#DejaVuSans-73" transform="translate(136.474609 0)"/>
      <use xlink:href="#DejaVuSans-68" transform="translate(188.574219 0)"/>
      <use xlink:href="#DejaVuSans-5f" transform="translate(251.953125 0)"/>
      <use xlink:href="#DejaVuSans-53" transform="translate(301.953125 0)"/>
      <use xlink:href="#DejaVuSans-69" transform="translate(365.429688 0)"/>
      <use xlink:href="#DejaVuSans-7a" transform="translate(393.212891 0)"/>
      <use xlink:href="#DejaVuSans-65" transform="translate(445.703125 0)"/>
      <use xlink:href="#DejaVuSans-20" transform="translate(507.226562 0)"/>
      <use xlink:href="#DejaVuSans-38" transform="translate(539.013672 0)"/>
     </g>
    </g>
    <g id="patch_102">
     <path d="M 59.6 133.935938 
L 79.6 133.935938 
L 79.6 126.935938 
L 59.6 126.935938 
z
" style="fill: #e377c2; opacity: 0.8"/>
    </g>
    <g id="text_28">
     <!-- Hash_Size 16 -->
     <g transform="translate(87.6 133.935938) scale(0.1 -0.1)">
      <use xlink:href="#DejaVuSans-48"/>
      <use xlink:href="#DejaVuSans-61" transform="translate(75.195312 0)"/>
      <use xlink:href="#DejaVuSans-73" transform="translate(136.474609 0)"/>
      <use xlink:href="#DejaVuSans-68" transform="translate(188.574219 0)"/>
      <use xlink:href="#DejaVuSans-5f" transform="translate(251.953125 0)"/>
      <use xlink:href="#DejaVuSans-53" transform="translate(301.953125 0)"/>
      <use xlink:href="#DejaVuSans-69" transform="translate(365.429688 0)"/>
      <use xlink:href="#DejaVuSans-7a" transform="translate(393.212891 0)"/>
      <use xlink:href="#DejaVuSans-65" transform="translate(445.703125 0)"/>
      <use xlink:href="#DejaVuSans-20" transform="translate(507.226562 0)"/>
      <use xlink:href="#DejaVuSans-31" transform="translate(539.013672 0)"/>
      <use xlink:href="#DejaVuSans-36" transform="translate(602.636719 0)"/>
     </g>
    </g>
    <g id="patch_103">
     <path d="M 59.6 148.892187 
L 79.6 148.892187 
L 79.6 141.892187 
L 59.6 141.892187 
z
" style="fill: #7f7f7f; opacity: 0.8"/>
    </g>
    <g id="text_29">
     <!-- Hash_Size 32 -->
     <g transform="translate(87.6 148.892187) scale(0.1 -0.1)">
      <use xlink:href="#DejaVuSans-48"/>
      <use xlink:href="#DejaVuSans-61" transform="translate(75.195312 0)"/>
      <use xlink:href="#DejaVuSans-73" transform="translate(136.474609 0)"/>
      <use xlink:href="#DejaVuSans-68" transform="translate(188.574219 0)"/>
      <use xlink:href="#DejaVuSans-5f" transform="translate(251.953125 0)"/>
      <use xlink:href="#DejaVuSans-53" transform="translate(301.953125 0)"/>
      <use xlink:href="#DejaVuSans-69" transform="translate(365.429688 0)"/>
      <use xlink:href="#DejaVuSans-7a" transform="translate(393.212891 0)"/>
      <use xlink:href="#DejaVuSans-65" transform="translate(445.703125 0)"/>
      <use xlink:href="#DejaVuSans-20" transform="translate(507.226562 0)"/>
      <use xlink:href="#DejaVuSans-33" transform="translate(539.013672 0)"/>
      <use xlink:href="#DejaVuSans-32" transform="translate(602.636719 0)"/>
     </g>
    </g>
   </g>
  </g>
 </g>
 <defs>
  <clipPath id="pead4b0da91">
   <rect x="50.6" y="27.6" width="802.6" height="359.56"/>
  </clipPath>
 </defs>
</svg>
