<?xml version="1.0" encoding="utf-8" standalone="no"?>
<!DOCTYPE svg PUBLIC "-//W3C//DTD SVG 1.1//EN"
  "http://www.w3.org/Graphics/SVG/1.1/DTD/svg11.dtd">
<svg xmlns:xlink="http://www.w3.org/1999/xlink" width="864pt" height="432pt" viewBox="0 0 864 432" xmlns="http://www.w3.org/2000/svg" version="1.1">
 <metadata>
  <rdf:RDF xmlns:dc="http://purl.org/dc/elements/1.1/" xmlns:cc="http://creativecommons.org/ns#" xmlns:rdf="http://www.w3.org/1999/02/22-rdf-syntax-ns#">
   <cc:Work>
    <dc:type rdf:resource="http://purl.org/dc/dcmitype/StillImage"/>
    <dc:date>2025-01-07T03:13:03.729108</dc:date>
    <dc:format>image/svg+xml</dc:format>
    <dc:creator>
     <cc:Agent>
      <dc:title>Matplotlib v3.10.0, https://matplotlib.org/</dc:title>
     </cc:Agent>
    </dc:creator>
   </cc:Work>
  </rdf:RDF>
 </metadata>
 <defs>
  <style type="text/css">*{stroke-linejoin: round; stroke-linecap: butt}</style>
 </defs>
 <g id="figure_1">
  <g id="patch_1">
   <path d="M 0 432 
L 864 432 
L 864 0 
L 0 0 
z
" style="fill: #ffffff"/>
  </g>
  <g id="axes_1">
   <g id="patch_2">
    <path d="M 56.9 387.16 
L 853.2 387.16 
L 853.2 27.6 
L 56.9 27.6 
z
" style="fill: #ffffff"/>
   </g>
   <g id="patch_3">
    <path d="M 93.095455 387.16 
L 100.482282 387.16 
L 100.482282 314.463645 
L 93.095455 314.463645 
z
" clip-path="url(#p9322062bb9)" style="fill: #1f77b4; opacity: 0.8"/>
   </g>
   <g id="patch_4">
    <path d="M 159.576902 387.16 
L 166.963729 387.16 
L 166.963729 322.115893 
L 159.576902 322.115893 
z
" clip-path="url(#p9322062bb9)" style="fill: #1f77b4; opacity: 0.8"/>
   </g>
   <g id="patch_5">
    <path d="M 226.058349 387.16 
L 233.445176 387.16 
L 233.445176 308.724459 
L 226.058349 308.724459 
z
" clip-path="url(#p9322062bb9)" style="fill: #1f77b4; opacity: 0.8"/>
   </g>
   <g id="patch_6">
    <path d="M 292.539796 387.16 
L 299.926623 387.16 
L 299.926623 295.333025 
L 292.539796 295.333025 
z
" clip-path="url(#p9322062bb9)" style="fill: #1f77b4; opacity: 0.8"/>
   </g>
   <g id="patch_7">
    <path d="M 359.021243 387.16 
L 366.408071 387.16 
L 366.408071 285.767715 
L 359.021243 285.767715 
z
" clip-path="url(#p9322062bb9)" style="fill: #1f77b4; opacity: 0.8"/>
   </g>
   <g id="patch_8">
    <path d="M 425.50269 387.16 
L 432.889518 387.16 
L 432.889518 237.941165 
L 425.50269 237.941165 
z
" clip-path="url(#p9322062bb9)" style="fill: #1f77b4; opacity: 0.8"/>
   </g>
   <g id="patch_9">
    <path d="M 491.984137 387.16 
L 499.370965 387.16 
L 499.370965 245.593413 
L 491.984137 245.593413 
z
" clip-path="url(#p9322062bb9)" style="fill: #1f77b4; opacity: 0.8"/>
   </g>
   <g id="patch_10">
    <path d="M 558.465584 387.16 
L 565.852412 387.16 
L 565.852412 224.549731 
L 558.465584 224.549731 
z
" clip-path="url(#p9322062bb9)" style="fill: #1f77b4; opacity: 0.8"/>
   </g>
   <g id="patch_11">
    <path d="M 624.947032 387.16 
L 632.333859 387.16 
L 632.333859 193.94074 
L 624.947032 193.94074 
z
" clip-path="url(#p9322062bb9)" style="fill: #1f77b4; opacity: 0.8"/>
   </g>
   <g id="patch_12">
    <path d="M 691.428479 387.16 
L 698.815306 387.16 
L 698.815306 170.983996 
L 691.428479 170.983996 
z
" clip-path="url(#p9322062bb9)" style="fill: #1f77b4; opacity: 0.8"/>
   </g>
   <g id="patch_13">
    <path d="M 757.909926 387.16 
L 765.296753 387.16 
L 765.296753 170.983996 
L 757.909926 170.983996 
z
" clip-path="url(#p9322062bb9)" style="fill: #1f77b4; opacity: 0.8"/>
   </g>
   <g id="patch_14">
    <path d="M 100.482282 387.16 
L 107.869109 387.16 
L 107.869109 333.594264 
L 100.482282 333.594264 
z
" clip-path="url(#p9322062bb9)" style="fill: #ff7f0e; opacity: 0.8"/>
   </g>
   <g id="patch_15">
    <path d="M 166.963729 387.16 
L 174.350557 387.16 
L 174.350557 318.289769 
L 166.963729 318.289769 
z
" clip-path="url(#p9322062bb9)" style="fill: #ff7f0e; opacity: 0.8"/>
   </g>
   <g id="patch_16">
    <path d="M 233.445176 387.16 
L 240.832004 387.16 
L 240.832004 302.985273 
L 233.445176 302.985273 
z
" clip-path="url(#p9322062bb9)" style="fill: #ff7f0e; opacity: 0.8"/>
   </g>
   <g id="patch_17">
    <path d="M 299.926623 387.16 
L 307.313451 387.16 
L 307.313451 274.289343 
L 299.926623 274.289343 
z
" clip-path="url(#p9322062bb9)" style="fill: #ff7f0e; opacity: 0.8"/>
   </g>
   <g id="patch_18">
    <path d="M 366.408071 387.16 
L 373.794898 387.16 
L 373.794898 260.897909 
L 366.408071 260.897909 
z
" clip-path="url(#p9322062bb9)" style="fill: #ff7f0e; opacity: 0.8"/>
   </g>
   <g id="patch_19">
    <path d="M 432.889518 387.16 
L 440.276345 387.16 
L 440.276345 220.723607 
L 432.889518 220.723607 
z
" clip-path="url(#p9322062bb9)" style="fill: #ff7f0e; opacity: 0.8"/>
   </g>
   <g id="patch_20">
    <path d="M 499.370965 387.16 
L 506.757792 387.16 
L 506.757792 195.853802 
L 499.370965 195.853802 
z
" clip-path="url(#p9322062bb9)" style="fill: #ff7f0e; opacity: 0.8"/>
   </g>
   <g id="patch_21">
    <path d="M 565.852412 387.16 
L 573.239239 387.16 
L 573.239239 157.592562 
L 565.852412 157.592562 
z
" clip-path="url(#p9322062bb9)" style="fill: #ff7f0e; opacity: 0.8"/>
   </g>
   <g id="patch_22">
    <path d="M 632.333859 387.16 
L 639.720686 387.16 
L 639.720686 113.592136 
L 632.333859 113.592136 
z
" clip-path="url(#p9322062bb9)" style="fill: #ff7f0e; opacity: 0.8"/>
   </g>
   <g id="patch_23">
    <path d="M 698.815306 387.16 
L 706.202134 387.16 
L 706.202134 79.15702 
L 698.815306 79.15702 
z
" clip-path="url(#p9322062bb9)" style="fill: #ff7f0e; opacity: 0.8"/>
   </g>
   <g id="patch_24">
    <path d="M 765.296753 387.16 
L 772.683581 387.16 
L 772.683581 52.374153 
L 765.296753 52.374153 
z
" clip-path="url(#p9322062bb9)" style="fill: #ff7f0e; opacity: 0.8"/>
   </g>
   <g id="patch_25">
    <path d="M 107.869109 387.16 
L 115.255937 387.16 
L 115.255937 327.855078 
L 107.869109 327.855078 
z
" clip-path="url(#p9322062bb9)" style="fill: #2ca02c; opacity: 0.8"/>
   </g>
   <g id="patch_26">
    <path d="M 174.350557 387.16 
L 181.737384 387.16 
L 181.737384 320.202831 
L 174.350557 320.202831 
z
" clip-path="url(#p9322062bb9)" style="fill: #2ca02c; opacity: 0.8"/>
   </g>
   <g id="patch_27">
    <path d="M 240.832004 387.16 
L 248.218831 387.16 
L 248.218831 304.898335 
L 240.832004 304.898335 
z
" clip-path="url(#p9322062bb9)" style="fill: #2ca02c; opacity: 0.8"/>
   </g>
   <g id="patch_28">
    <path d="M 307.313451 387.16 
L 314.700278 387.16 
L 314.700278 274.289343 
L 307.313451 274.289343 
z
" clip-path="url(#p9322062bb9)" style="fill: #2ca02c; opacity: 0.8"/>
   </g>
   <g id="patch_29">
    <path d="M 373.794898 387.16 
L 381.181725 387.16 
L 381.181725 257.071785 
L 373.794898 257.071785 
z
" clip-path="url(#p9322062bb9)" style="fill: #2ca02c; opacity: 0.8"/>
   </g>
   <g id="patch_30">
    <path d="M 440.276345 387.16 
L 447.663173 387.16 
L 447.663173 216.897483 
L 440.276345 216.897483 
z
" clip-path="url(#p9322062bb9)" style="fill: #2ca02c; opacity: 0.8"/>
   </g>
   <g id="patch_31">
    <path d="M 506.757792 387.16 
L 514.14462 387.16 
L 514.14462 186.288492 
L 506.757792 186.288492 
z
" clip-path="url(#p9322062bb9)" style="fill: #2ca02c; opacity: 0.8"/>
   </g>
   <g id="patch_32">
    <path d="M 573.239239 387.16 
L 580.626067 387.16 
L 580.626067 144.201128 
L 573.239239 144.201128 
z
" clip-path="url(#p9322062bb9)" style="fill: #2ca02c; opacity: 0.8"/>
   </g>
   <g id="patch_33">
    <path d="M 639.720686 387.16 
L 647.107514 387.16 
L 647.107514 102.113764 
L 639.720686 102.113764 
z
" clip-path="url(#p9322062bb9)" style="fill: #2ca02c; opacity: 0.8"/>
   </g>
   <g id="patch_34">
    <path d="M 706.202134 387.16 
L 713.588961 387.16 
L 713.588961 77.243958 
L 706.202134 77.243958 
z
" clip-path="url(#p9322062bb9)" style="fill: #2ca02c; opacity: 0.8"/>
   </g>
   <g id="patch_35">
    <path d="M 772.683581 387.16 
L 780.070408 387.16 
L 780.070408 44.721905 
L 772.683581 44.721905 
z
" clip-path="url(#p9322062bb9)" style="fill: #2ca02c; opacity: 0.8"/>
   </g>
   <g id="patch_36">
    <path d="M 115.255937 387.16 
L 122.642764 387.16 
L 122.642764 331.681202 
L 115.255937 331.681202 
z
" clip-path="url(#p9322062bb9)" style="fill: #d62728; opacity: 0.8"/>
   </g>
   <g id="patch_37">
    <path d="M 181.737384 387.16 
L 189.124212 387.16 
L 189.124212 322.115893 
L 181.737384 322.115893 
z
" clip-path="url(#p9322062bb9)" style="fill: #d62728; opacity: 0.8"/>
   </g>
   <g id="patch_38">
    <path d="M 248.218831 387.16 
L 255.605659 387.16 
L 255.605659 306.811397 
L 248.218831 306.811397 
z
" clip-path="url(#p9322062bb9)" style="fill: #d62728; opacity: 0.8"/>
   </g>
   <g id="patch_39">
    <path d="M 314.700278 387.16 
L 322.087106 387.16 
L 322.087106 272.376281 
L 314.700278 272.376281 
z
" clip-path="url(#p9322062bb9)" style="fill: #d62728; opacity: 0.8"/>
   </g>
   <g id="patch_40">
    <path d="M 381.181725 387.16 
L 388.568553 387.16 
L 388.568553 257.071785 
L 381.181725 257.071785 
z
" clip-path="url(#p9322062bb9)" style="fill: #d62728; opacity: 0.8"/>
   </g>
   <g id="patch_41">
    <path d="M 447.663173 387.16 
L 455.05 387.16 
L 455.05 218.810545 
L 447.663173 218.810545 
z
" clip-path="url(#p9322062bb9)" style="fill: #d62728; opacity: 0.8"/>
   </g>
   <g id="patch_42">
    <path d="M 514.14462 387.16 
L 521.531447 387.16 
L 521.531447 182.462368 
L 514.14462 182.462368 
z
" clip-path="url(#p9322062bb9)" style="fill: #d62728; opacity: 0.8"/>
   </g>
   <g id="patch_43">
    <path d="M 580.626067 387.16 
L 588.012894 387.16 
L 588.012894 148.027252 
L 580.626067 148.027252 
z
" clip-path="url(#p9322062bb9)" style="fill: #d62728; opacity: 0.8"/>
   </g>
   <g id="patch_44">
    <path d="M 647.107514 387.16 
L 654.494341 387.16 
L 654.494341 102.113764 
L 647.107514 102.113764 
z
" clip-path="url(#p9322062bb9)" style="fill: #d62728; opacity: 0.8"/>
   </g>
   <g id="patch_45">
    <path d="M 713.588961 387.16 
L 720.975788 387.16 
L 720.975788 75.330897 
L 713.588961 75.330897 
z
" clip-path="url(#p9322062bb9)" style="fill: #d62728; opacity: 0.8"/>
   </g>
   <g id="patch_46">
    <path d="M 780.070408 387.16 
L 787.457236 387.16 
L 787.457236 48.548029 
L 780.070408 48.548029 
z
" clip-path="url(#p9322062bb9)" style="fill: #d62728; opacity: 0.8"/>
   </g>
   <g id="patch_47">
    <path d="M 122.642764 387.16 
L 130.029592 387.16 
L 130.029592 329.76814 
L 122.642764 329.76814 
z
" clip-path="url(#p9322062bb9)" style="fill: #9467bd; opacity: 0.8"/>
   </g>
   <g id="patch_48">
    <path d="M 189.124212 387.16 
L 196.511039 387.16 
L 196.511039 325.942016 
L 189.124212 325.942016 
z
" clip-path="url(#p9322062bb9)" style="fill: #9467bd; opacity: 0.8"/>
   </g>
   <g id="patch_49">
    <path d="M 255.605659 387.16 
L 262.992486 387.16 
L 262.992486 306.811397 
L 255.605659 306.811397 
z
" clip-path="url(#p9322062bb9)" style="fill: #9467bd; opacity: 0.8"/>
   </g>
   <g id="patch_50">
    <path d="M 322.087106 387.16 
L 329.473933 387.16 
L 329.473933 272.376281 
L 322.087106 272.376281 
z
" clip-path="url(#p9322062bb9)" style="fill: #9467bd; opacity: 0.8"/>
   </g>
   <g id="patch_51">
    <path d="M 388.568553 387.16 
L 395.95538 387.16 
L 395.95538 257.071785 
L 388.568553 257.071785 
z
" clip-path="url(#p9322062bb9)" style="fill: #9467bd; opacity: 0.8"/>
   </g>
   <g id="patch_52">
    <path d="M 455.05 387.16 
L 462.436827 387.16 
L 462.436827 214.984421 
L 455.05 214.984421 
z
" clip-path="url(#p9322062bb9)" style="fill: #9467bd; opacity: 0.8"/>
   </g>
   <g id="patch_53">
    <path d="M 521.531447 387.16 
L 528.918275 387.16 
L 528.918275 188.201554 
L 521.531447 188.201554 
z
" clip-path="url(#p9322062bb9)" style="fill: #9467bd; opacity: 0.8"/>
   </g>
   <g id="patch_54">
    <path d="M 588.012894 387.16 
L 595.399722 387.16 
L 595.399722 148.027252 
L 588.012894 148.027252 
z
" clip-path="url(#p9322062bb9)" style="fill: #9467bd; opacity: 0.8"/>
   </g>
   <g id="patch_55">
    <path d="M 654.494341 387.16 
L 661.881169 387.16 
L 661.881169 109.766012 
L 654.494341 109.766012 
z
" clip-path="url(#p9322062bb9)" style="fill: #9467bd; opacity: 0.8"/>
   </g>
   <g id="patch_56">
    <path d="M 720.975788 387.16 
L 728.362616 387.16 
L 728.362616 71.504773 
L 720.975788 71.504773 
z
" clip-path="url(#p9322062bb9)" style="fill: #9467bd; opacity: 0.8"/>
   </g>
   <g id="patch_57">
    <path d="M 787.457236 387.16 
L 794.844063 387.16 
L 794.844063 50.461091 
L 787.457236 50.461091 
z
" clip-path="url(#p9322062bb9)" style="fill: #9467bd; opacity: 0.8"/>
   </g>
   <g id="patch_58">
    <path d="M 130.029592 387.16 
L 137.416419 387.16 
L 137.416419 329.76814 
L 130.029592 329.76814 
z
" clip-path="url(#p9322062bb9)" style="fill: #8c564b; opacity: 0.8"/>
   </g>
   <g id="patch_59">
    <path d="M 196.511039 387.16 
L 203.897866 387.16 
L 203.897866 322.115893 
L 196.511039 322.115893 
z
" clip-path="url(#p9322062bb9)" style="fill: #8c564b; opacity: 0.8"/>
   </g>
   <g id="patch_60">
    <path d="M 262.992486 387.16 
L 270.379314 387.16 
L 270.379314 308.724459 
L 262.992486 308.724459 
z
" clip-path="url(#p9322062bb9)" style="fill: #8c564b; opacity: 0.8"/>
   </g>
   <g id="patch_61">
    <path d="M 329.473933 387.16 
L 336.860761 387.16 
L 336.860761 270.463219 
L 329.473933 270.463219 
z
" clip-path="url(#p9322062bb9)" style="fill: #8c564b; opacity: 0.8"/>
   </g>
   <g id="patch_62">
    <path d="M 395.95538 387.16 
L 403.342208 387.16 
L 403.342208 258.984847 
L 395.95538 258.984847 
z
" clip-path="url(#p9322062bb9)" style="fill: #8c564b; opacity: 0.8"/>
   </g>
   <g id="patch_63">
    <path d="M 462.436827 387.16 
L 469.823655 387.16 
L 469.823655 220.723607 
L 462.436827 220.723607 
z
" clip-path="url(#p9322062bb9)" style="fill: #8c564b; opacity: 0.8"/>
   </g>
   <g id="patch_64">
    <path d="M 528.918275 387.16 
L 536.305102 387.16 
L 536.305102 184.37543 
L 528.918275 184.37543 
z
" clip-path="url(#p9322062bb9)" style="fill: #8c564b; opacity: 0.8"/>
   </g>
   <g id="patch_65">
    <path d="M 595.399722 387.16 
L 602.786549 387.16 
L 602.786549 151.853376 
L 595.399722 151.853376 
z
" clip-path="url(#p9322062bb9)" style="fill: #8c564b; opacity: 0.8"/>
   </g>
   <g id="patch_66">
    <path d="M 661.881169 387.16 
L 669.267996 387.16 
L 669.267996 109.766012 
L 661.881169 109.766012 
z
" clip-path="url(#p9322062bb9)" style="fill: #8c564b; opacity: 0.8"/>
   </g>
   <g id="patch_67">
    <path d="M 728.362616 387.16 
L 735.749443 387.16 
L 735.749443 73.417835 
L 728.362616 73.417835 
z
" clip-path="url(#p9322062bb9)" style="fill: #8c564b; opacity: 0.8"/>
   </g>
   <g id="patch_68">
    <path d="M 794.844063 387.16 
L 802.230891 387.16 
L 802.230891 46.634967 
L 794.844063 46.634967 
z
" clip-path="url(#p9322062bb9)" style="fill: #8c564b; opacity: 0.8"/>
   </g>
   <g id="patch_69">
    <path d="M 137.416419 387.16 
L 144.803247 387.16 
L 144.803247 327.855078 
L 137.416419 327.855078 
z
" clip-path="url(#p9322062bb9)" style="fill: #e377c2; opacity: 0.8"/>
   </g>
   <g id="patch_70">
    <path d="M 203.897866 387.16 
L 211.284694 387.16 
L 211.284694 322.115893 
L 203.897866 322.115893 
z
" clip-path="url(#p9322062bb9)" style="fill: #e377c2; opacity: 0.8"/>
   </g>
   <g id="patch_71">
    <path d="M 270.379314 387.16 
L 277.766141 387.16 
L 277.766141 308.724459 
L 270.379314 308.724459 
z
" clip-path="url(#p9322062bb9)" style="fill: #e377c2; opacity: 0.8"/>
   </g>
   <g id="patch_72">
    <path d="M 336.860761 387.16 
L 344.247588 387.16 
L 344.247588 272.376281 
L 336.860761 272.376281 
z
" clip-path="url(#p9322062bb9)" style="fill: #e377c2; opacity: 0.8"/>
   </g>
   <g id="patch_73">
    <path d="M 403.342208 387.16 
L 410.729035 387.16 
L 410.729035 255.158723 
L 403.342208 255.158723 
z
" clip-path="url(#p9322062bb9)" style="fill: #e377c2; opacity: 0.8"/>
   </g>
   <g id="patch_74">
    <path d="M 469.823655 387.16 
L 477.210482 387.16 
L 477.210482 220.723607 
L 469.823655 220.723607 
z
" clip-path="url(#p9322062bb9)" style="fill: #e377c2; opacity: 0.8"/>
   </g>
   <g id="patch_75">
    <path d="M 536.305102 387.16 
L 543.691929 387.16 
L 543.691929 188.201554 
L 536.305102 188.201554 
z
" clip-path="url(#p9322062bb9)" style="fill: #e377c2; opacity: 0.8"/>
   </g>
   <g id="patch_76">
    <path d="M 602.786549 387.16 
L 610.173377 387.16 
L 610.173377 148.027252 
L 602.786549 148.027252 
z
" clip-path="url(#p9322062bb9)" style="fill: #e377c2; opacity: 0.8"/>
   </g>
   <g id="patch_77">
    <path d="M 669.267996 387.16 
L 676.654824 387.16 
L 676.654824 111.679074 
L 669.267996 111.679074 
z
" clip-path="url(#p9322062bb9)" style="fill: #e377c2; opacity: 0.8"/>
   </g>
   <g id="patch_78">
    <path d="M 735.749443 387.16 
L 743.136271 387.16 
L 743.136271 71.504773 
L 735.749443 71.504773 
z
" clip-path="url(#p9322062bb9)" style="fill: #e377c2; opacity: 0.8"/>
   </g>
   <g id="patch_79">
    <path d="M 802.230891 387.16 
L 809.617718 387.16 
L 809.617718 50.461091 
L 802.230891 50.461091 
z
" clip-path="url(#p9322062bb9)" style="fill: #e377c2; opacity: 0.8"/>
   </g>
   <g id="patch_80">
    <path d="M 144.803247 387.16 
L 152.190074 387.16 
L 152.190074 329.76814 
L 144.803247 329.76814 
z
" clip-path="url(#p9322062bb9)" style="fill: #7f7f7f; opacity: 0.8"/>
   </g>
   <g id="patch_81">
    <path d="M 211.284694 387.16 
L 218.671521 387.16 
L 218.671521 322.115893 
L 211.284694 322.115893 
z
" clip-path="url(#p9322062bb9)" style="fill: #7f7f7f; opacity: 0.8"/>
   </g>
   <g id="patch_82">
    <path d="M 277.766141 387.16 
L 285.152968 387.16 
L 285.152968 308.724459 
L 277.766141 308.724459 
z
" clip-path="url(#p9322062bb9)" style="fill: #7f7f7f; opacity: 0.8"/>
   </g>
   <g id="patch_83">
    <path d="M 344.247588 387.16 
L 351.634416 387.16 
L 351.634416 274.289343 
L 344.247588 274.289343 
z
" clip-path="url(#p9322062bb9)" style="fill: #7f7f7f; opacity: 0.8"/>
   </g>
   <g id="patch_84">
    <path d="M 410.729035 387.16 
L 418.115863 387.16 
L 418.115863 257.071785 
L 410.729035 257.071785 
z
" clip-path="url(#p9322062bb9)" style="fill: #7f7f7f; opacity: 0.8"/>
   </g>
   <g id="patch_85">
    <path d="M 477.210482 387.16 
L 484.59731 387.16 
L 484.59731 216.897483 
L 477.210482 216.897483 
z
" clip-path="url(#p9322062bb9)" style="fill: #7f7f7f; opacity: 0.8"/>
   </g>
   <g id="patch_86">
    <path d="M 543.691929 387.16 
L 551.078757 387.16 
L 551.078757 188.201554 
L 543.691929 188.201554 
z
" clip-path="url(#p9322062bb9)" style="fill: #7f7f7f; opacity: 0.8"/>
   </g>
   <g id="patch_87">
    <path d="M 610.173377 387.16 
L 617.560204 387.16 
L 617.560204 148.027252 
L 610.173377 148.027252 
z
" clip-path="url(#p9322062bb9)" style="fill: #7f7f7f; opacity: 0.8"/>
   </g>
   <g id="patch_88">
    <path d="M 676.654824 387.16 
L 684.041651 387.16 
L 684.041651 107.85295 
L 676.654824 107.85295 
z
" clip-path="url(#p9322062bb9)" style="fill: #7f7f7f; opacity: 0.8"/>
   </g>
   <g id="patch_89">
    <path d="M 743.136271 387.16 
L 750.523098 387.16 
L 750.523098 79.15702 
L 743.136271 79.15702 
z
" clip-path="url(#p9322062bb9)" style="fill: #7f7f7f; opacity: 0.8"/>
   </g>
   <g id="patch_90">
    <path d="M 809.617718 387.16 
L 817.004545 387.16 
L 817.004545 48.548029 
L 809.617718 48.548029 
z
" clip-path="url(#p9322062bb9)" style="fill: #7f7f7f; opacity: 0.8"/>
   </g>
   <g id="matplotlib.axis_1">
    <g id="xtick_1">
     <g id="line2d_1">
      <defs>
       <path id="m91610cefa7" d="M 0 0 
L 0 3.5 
" style="stroke: #000000; stroke-width: 0.8"/>
      </defs>
      <g>
       <use xlink:href="#m91610cefa7" x="96.788868" y="387.16" style="stroke: #000000; stroke-width: 0.8"/>
      </g>
     </g>
     <g id="text_1">
      <!-- 25 -->
      <g transform="translate(90.426368 401.758438) scale(0.1 -0.1)">
       <defs>
        <path id="DejaVuSans-32" d="M 1228 531 
L 3431 531 
L 3431 0 
L 469 0 
L 469 531 
Q 828 903 1448 1529 
Q 2069 2156 2228 2338 
Q 2531 2678 2651 2914 
Q 2772 3150 2772 3378 
Q 2772 3750 2511 3984 
Q 2250 4219 1831 4219 
Q 1534 4219 1204 4116 
Q 875 4013 500 3803 
L 500 4441 
Q 881 4594 1212 4672 
Q 1544 4750 1819 4750 
Q 2544 4750 2975 4387 
Q 3406 4025 3406 3419 
Q 3406 3131 3298 2873 
Q 3191 2616 2906 2266 
Q 2828 2175 2409 1742 
Q 1991 1309 1228 531 
z
" transform="scale(0.015625)"/>
        <path id="DejaVuSans-35" d="M 691 4666 
L 3169 4666 
L 3169 4134 
L 1269 4134 
L 1269 2991 
Q 1406 3038 1543 3061 
Q 1681 3084 1819 3084 
Q 2600 3084 3056 2656 
Q 3513 2228 3513 1497 
Q 3513 744 3044 326 
Q 2575 -91 1722 -91 
Q 1428 -91 1123 -41 
Q 819 9 494 109 
L 494 744 
Q 775 591 1075 516 
Q 1375 441 1709 441 
Q 2250 441 2565 725 
Q 2881 1009 2881 1497 
Q 2881 1984 2565 2268 
Q 2250 2553 1709 2553 
Q 1456 2553 1204 2497 
Q 953 2441 691 2322 
L 691 4666 
z
" transform="scale(0.015625)"/>
       </defs>
       <use xlink:href="#DejaVuSans-32"/>
       <use xlink:href="#DejaVuSans-35" transform="translate(63.623047 0)"/>
      </g>
     </g>
    </g>
    <g id="xtick_2">
     <g id="line2d_2">
      <g>
       <use xlink:href="#m91610cefa7" x="163.270315" y="387.16" style="stroke: #000000; stroke-width: 0.8"/>
      </g>
     </g>
     <g id="text_2">
      <!-- 26 -->
      <g transform="translate(156.907815 401.758438) scale(0.1 -0.1)">
       <defs>
        <path id="DejaVuSans-36" d="M 2113 2584 
Q 1688 2584 1439 2293 
Q 1191 2003 1191 1497 
Q 1191 994 1439 701 
Q 1688 409 2113 409 
Q 2538 409 2786 701 
Q 3034 994 3034 1497 
Q 3034 2003 2786 2293 
Q 2538 2584 2113 2584 
z
M 3366 4563 
L 3366 3988 
Q 3128 4100 2886 4159 
Q 2644 4219 2406 4219 
Q 1781 4219 1451 3797 
Q 1122 3375 1075 2522 
Q 1259 2794 1537 2939 
Q 1816 3084 2150 3084 
Q 2853 3084 3261 2657 
Q 3669 2231 3669 1497 
Q 3669 778 3244 343 
Q 2819 -91 2113 -91 
Q 1303 -91 875 529 
Q 447 1150 447 2328 
Q 447 3434 972 4092 
Q 1497 4750 2381 4750 
Q 2619 4750 2861 4703 
Q 3103 4656 3366 4563 
z
" transform="scale(0.015625)"/>
       </defs>
       <use xlink:href="#DejaVuSans-32"/>
       <use xlink:href="#DejaVuSans-36" transform="translate(63.623047 0)"/>
      </g>
     </g>
    </g>
    <g id="xtick_3">
     <g id="line2d_3">
      <g>
       <use xlink:href="#m91610cefa7" x="229.751763" y="387.16" style="stroke: #000000; stroke-width: 0.8"/>
      </g>
     </g>
     <g id="text_3">
      <!-- 27 -->
      <g transform="translate(223.389263 401.758438) scale(0.1 -0.1)">
       <defs>
        <path id="DejaVuSans-37" d="M 525 4666 
L 3525 4666 
L 3525 4397 
L 1831 0 
L 1172 0 
L 2766 4134 
L 525 4134 
L 525 4666 
z
" transform="scale(0.015625)"/>
       </defs>
       <use xlink:href="#DejaVuSans-32"/>
       <use xlink:href="#DejaVuSans-37" transform="translate(63.623047 0)"/>
      </g>
     </g>
    </g>
    <g id="xtick_4">
     <g id="line2d_4">
      <g>
       <use xlink:href="#m91610cefa7" x="296.23321" y="387.16" style="stroke: #000000; stroke-width: 0.8"/>
      </g>
     </g>
     <g id="text_4">
      <!-- 28 -->
      <g transform="translate(289.87071 401.758438) scale(0.1 -0.1)">
       <defs>
        <path id="DejaVuSans-38" d="M 2034 2216 
Q 1584 2216 1326 1975 
Q 1069 1734 1069 1313 
Q 1069 891 1326 650 
Q 1584 409 2034 409 
Q 2484 409 2743 651 
Q 3003 894 3003 1313 
Q 3003 1734 2745 1975 
Q 2488 2216 2034 2216 
z
M 1403 2484 
Q 997 2584 770 2862 
Q 544 3141 544 3541 
Q 544 4100 942 4425 
Q 1341 4750 2034 4750 
Q 2731 4750 3128 4425 
Q 3525 4100 3525 3541 
Q 3525 3141 3298 2862 
Q 3072 2584 2669 2484 
Q 3125 2378 3379 2068 
Q 3634 1759 3634 1313 
Q 3634 634 3220 271 
Q 2806 -91 2034 -91 
Q 1263 -91 848 271 
Q 434 634 434 1313 
Q 434 1759 690 2068 
Q 947 2378 1403 2484 
z
M 1172 3481 
Q 1172 3119 1398 2916 
Q 1625 2713 2034 2713 
Q 2441 2713 2670 2916 
Q 2900 3119 2900 3481 
Q 2900 3844 2670 4047 
Q 2441 4250 2034 4250 
Q 1625 4250 1398 4047 
Q 1172 3844 1172 3481 
z
" transform="scale(0.015625)"/>
       </defs>
       <use xlink:href="#DejaVuSans-32"/>
       <use xlink:href="#DejaVuSans-38" transform="translate(63.623047 0)"/>
      </g>
     </g>
    </g>
    <g id="xtick_5">
     <g id="line2d_5">
      <g>
       <use xlink:href="#m91610cefa7" x="362.714657" y="387.16" style="stroke: #000000; stroke-width: 0.8"/>
      </g>
     </g>
     <g id="text_5">
      <!-- 29 -->
      <g transform="translate(356.352157 401.758438) scale(0.1 -0.1)">
       <defs>
        <path id="DejaVuSans-39" d="M 703 97 
L 703 672 
Q 941 559 1184 500 
Q 1428 441 1663 441 
Q 2288 441 2617 861 
Q 2947 1281 2994 2138 
Q 2813 1869 2534 1725 
Q 2256 1581 1919 1581 
Q 1219 1581 811 2004 
Q 403 2428 403 3163 
Q 403 3881 828 4315 
Q 1253 4750 1959 4750 
Q 2769 4750 3195 4129 
Q 3622 3509 3622 2328 
Q 3622 1225 3098 567 
Q 2575 -91 1691 -91 
Q 1453 -91 1209 -44 
Q 966 3 703 97 
z
M 1959 2075 
Q 2384 2075 2632 2365 
Q 2881 2656 2881 3163 
Q 2881 3666 2632 3958 
Q 2384 4250 1959 4250 
Q 1534 4250 1286 3958 
Q 1038 3666 1038 3163 
Q 1038 2656 1286 2365 
Q 1534 2075 1959 2075 
z
" transform="scale(0.015625)"/>
       </defs>
       <use xlink:href="#DejaVuSans-32"/>
       <use xlink:href="#DejaVuSans-39" transform="translate(63.623047 0)"/>
      </g>
     </g>
    </g>
    <g id="xtick_6">
     <g id="line2d_6">
      <g>
       <use xlink:href="#m91610cefa7" x="429.196104" y="387.16" style="stroke: #000000; stroke-width: 0.8"/>
      </g>
     </g>
     <g id="text_6">
      <!-- 30 -->
      <g transform="translate(422.833604 401.758438) scale(0.1 -0.1)">
       <defs>
        <path id="DejaVuSans-33" d="M 2597 2516 
Q 3050 2419 3304 2112 
Q 3559 1806 3559 1356 
Q 3559 666 3084 287 
Q 2609 -91 1734 -91 
Q 1441 -91 1130 -33 
Q 819 25 488 141 
L 488 750 
Q 750 597 1062 519 
Q 1375 441 1716 441 
Q 2309 441 2620 675 
Q 2931 909 2931 1356 
Q 2931 1769 2642 2001 
Q 2353 2234 1838 2234 
L 1294 2234 
L 1294 2753 
L 1863 2753 
Q 2328 2753 2575 2939 
Q 2822 3125 2822 3475 
Q 2822 3834 2567 4026 
Q 2313 4219 1838 4219 
Q 1578 4219 1281 4162 
Q 984 4106 628 3988 
L 628 4550 
Q 988 4650 1302 4700 
Q 1616 4750 1894 4750 
Q 2613 4750 3031 4423 
Q 3450 4097 3450 3541 
Q 3450 3153 3228 2886 
Q 3006 2619 2597 2516 
z
" transform="scale(0.015625)"/>
        <path id="DejaVuSans-30" d="M 2034 4250 
Q 1547 4250 1301 3770 
Q 1056 3291 1056 2328 
Q 1056 1369 1301 889 
Q 1547 409 2034 409 
Q 2525 409 2770 889 
Q 3016 1369 3016 2328 
Q 3016 3291 2770 3770 
Q 2525 4250 2034 4250 
z
M 2034 4750 
Q 2819 4750 3233 4129 
Q 3647 3509 3647 2328 
Q 3647 1150 3233 529 
Q 2819 -91 2034 -91 
Q 1250 -91 836 529 
Q 422 1150 422 2328 
Q 422 3509 836 4129 
Q 1250 4750 2034 4750 
z
" transform="scale(0.015625)"/>
       </defs>
       <use xlink:href="#DejaVuSans-33"/>
       <use xlink:href="#DejaVuSans-30" transform="translate(63.623047 0)"/>
      </g>
     </g>
    </g>
    <g id="xtick_7">
     <g id="line2d_7">
      <g>
       <use xlink:href="#m91610cefa7" x="495.677551" y="387.16" style="stroke: #000000; stroke-width: 0.8"/>
      </g>
     </g>
     <g id="text_7">
      <!-- 31 -->
      <g transform="translate(489.315051 401.758438) scale(0.1 -0.1)">
       <defs>
        <path id="DejaVuSans-31" d="M 794 531 
L 1825 531 
L 1825 4091 
L 703 3866 
L 703 4441 
L 1819 4666 
L 2450 4666 
L 2450 531 
L 3481 531 
L 3481 0 
L 794 0 
L 794 531 
z
" transform="scale(0.015625)"/>
       </defs>
       <use xlink:href="#DejaVuSans-33"/>
       <use xlink:href="#DejaVuSans-31" transform="translate(63.623047 0)"/>
      </g>
     </g>
    </g>
    <g id="xtick_8">
     <g id="line2d_8">
      <g>
       <use xlink:href="#m91610cefa7" x="562.158998" y="387.16" style="stroke: #000000; stroke-width: 0.8"/>
      </g>
     </g>
     <g id="text_8">
      <!-- 32 -->
      <g transform="translate(555.796498 401.758438) scale(0.1 -0.1)">
       <use xlink:href="#DejaVuSans-33"/>
       <use xlink:href="#DejaVuSans-32" transform="translate(63.623047 0)"/>
      </g>
     </g>
    </g>
    <g id="xtick_9">
     <g id="line2d_9">
      <g>
       <use xlink:href="#m91610cefa7" x="628.640445" y="387.16" style="stroke: #000000; stroke-width: 0.8"/>
      </g>
     </g>
     <g id="text_9">
      <!-- 33 -->
      <g transform="translate(622.277945 401.758438) scale(0.1 -0.1)">
       <use xlink:href="#DejaVuSans-33"/>
       <use xlink:href="#DejaVuSans-33" transform="translate(63.623047 0)"/>
      </g>
     </g>
    </g>
    <g id="xtick_10">
     <g id="line2d_10">
      <g>
       <use xlink:href="#m91610cefa7" x="695.121892" y="387.16" style="stroke: #000000; stroke-width: 0.8"/>
      </g>
     </g>
     <g id="text_10">
      <!-- 34 -->
      <g transform="translate(688.759392 401.758438) scale(0.1 -0.1)">
       <defs>
        <path id="DejaVuSans-34" d="M 2419 4116 
L 825 1625 
L 2419 1625 
L 2419 4116 
z
M 2253 4666 
L 3047 4666 
L 3047 1625 
L 3713 1625 
L 3713 1100 
L 3047 1100 
L 3047 0 
L 2419 0 
L 2419 1100 
L 313 1100 
L 313 1709 
L 2253 4666 
z
" transform="scale(0.015625)"/>
       </defs>
       <use xlink:href="#DejaVuSans-33"/>
       <use xlink:href="#DejaVuSans-34" transform="translate(63.623047 0)"/>
      </g>
     </g>
    </g>
    <g id="xtick_11">
     <g id="line2d_11">
      <g>
       <use xlink:href="#m91610cefa7" x="761.60334" y="387.16" style="stroke: #000000; stroke-width: 0.8"/>
      </g>
     </g>
     <g id="text_11">
      <!-- 35 -->
      <g transform="translate(755.24084 401.758438) scale(0.1 -0.1)">
       <use xlink:href="#DejaVuSans-33"/>
       <use xlink:href="#DejaVuSans-35" transform="translate(63.623047 0)"/>
      </g>
     </g>
    </g>
    <g id="text_12">
     <!-- K-Value -->
     <g transform="translate(433.455625 416.95625) scale(0.12 -0.12)">
      <defs>
       <path id="DejaVuSans-4b" d="M 628 4666 
L 1259 4666 
L 1259 2694 
L 3353 4666 
L 4166 4666 
L 1850 2491 
L 4331 0 
L 3500 0 
L 1259 2247 
L 1259 0 
L 628 0 
L 628 4666 
z
" transform="scale(0.015625)"/>
       <path id="DejaVuSans-2d" d="M 313 2009 
L 1997 2009 
L 1997 1497 
L 313 1497 
L 313 2009 
z
" transform="scale(0.015625)"/>
       <path id="DejaVuSans-56" d="M 1831 0 
L 50 4666 
L 709 4666 
L 2188 738 
L 3669 4666 
L 4325 4666 
L 2547 0 
L 1831 0 
z
" transform="scale(0.015625)"/>
       <path id="DejaVuSans-61" d="M 2194 1759 
Q 1497 1759 1228 1600 
Q 959 1441 959 1056 
Q 959 750 1161 570 
Q 1363 391 1709 391 
Q 2188 391 2477 730 
Q 2766 1069 2766 1631 
L 2766 1759 
L 2194 1759 
z
M 3341 1997 
L 3341 0 
L 2766 0 
L 2766 531 
Q 2569 213 2275 61 
Q 1981 -91 1556 -91 
Q 1019 -91 701 211 
Q 384 513 384 1019 
Q 384 1609 779 1909 
Q 1175 2209 1959 2209 
L 2766 2209 
L 2766 2266 
Q 2766 2663 2505 2880 
Q 2244 3097 1772 3097 
Q 1472 3097 1187 3025 
Q 903 2953 641 2809 
L 641 3341 
Q 956 3463 1253 3523 
Q 1550 3584 1831 3584 
Q 2591 3584 2966 3190 
Q 3341 2797 3341 1997 
z
" transform="scale(0.015625)"/>
       <path id="DejaVuSans-6c" d="M 603 4863 
L 1178 4863 
L 1178 0 
L 603 0 
L 603 4863 
z
" transform="scale(0.015625)"/>
       <path id="DejaVuSans-75" d="M 544 1381 
L 544 3500 
L 1119 3500 
L 1119 1403 
Q 1119 906 1312 657 
Q 1506 409 1894 409 
Q 2359 409 2629 706 
Q 2900 1003 2900 1516 
L 2900 3500 
L 3475 3500 
L 3475 0 
L 2900 0 
L 2900 538 
Q 2691 219 2414 64 
Q 2138 -91 1772 -91 
Q 1169 -91 856 284 
Q 544 659 544 1381 
z
M 1991 3584 
L 1991 3584 
z
" transform="scale(0.015625)"/>
       <path id="DejaVuSans-65" d="M 3597 1894 
L 3597 1613 
L 953 1613 
Q 991 1019 1311 708 
Q 1631 397 2203 397 
Q 2534 397 2845 478 
Q 3156 559 3463 722 
L 3463 178 
Q 3153 47 2828 -22 
Q 2503 -91 2169 -91 
Q 1331 -91 842 396 
Q 353 884 353 1716 
Q 353 2575 817 3079 
Q 1281 3584 2069 3584 
Q 2775 3584 3186 3129 
Q 3597 2675 3597 1894 
z
M 3022 2063 
Q 3016 2534 2758 2815 
Q 2500 3097 2075 3097 
Q 1594 3097 1305 2825 
Q 1016 2553 972 2059 
L 3022 2063 
z
" transform="scale(0.015625)"/>
      </defs>
      <use xlink:href="#DejaVuSans-4b"/>
      <use xlink:href="#DejaVuSans-2d" transform="translate(55.076172 0)"/>
      <use xlink:href="#DejaVuSans-56" transform="translate(85.285156 0)"/>
      <use xlink:href="#DejaVuSans-61" transform="translate(145.943359 0)"/>
      <use xlink:href="#DejaVuSans-6c" transform="translate(207.222656 0)"/>
      <use xlink:href="#DejaVuSans-75" transform="translate(235.005859 0)"/>
      <use xlink:href="#DejaVuSans-65" transform="translate(298.384766 0)"/>
     </g>
    </g>
   </g>
   <g id="matplotlib.axis_2">
    <g id="ytick_1">
     <g id="line2d_12">
      <defs>
       <path id="m72c2053d4b" d="M 0 0 
L -3.5 0 
" style="stroke: #000000; stroke-width: 0.8"/>
      </defs>
      <g>
       <use xlink:href="#m72c2053d4b" x="56.9" y="387.16" style="stroke: #000000; stroke-width: 0.8"/>
      </g>
     </g>
     <g id="text_13">
      <!-- 0.00 -->
      <g transform="translate(27.634375 390.959219) scale(0.1 -0.1)">
       <defs>
        <path id="DejaVuSans-2e" d="M 684 794 
L 1344 794 
L 1344 0 
L 684 0 
L 684 794 
z
" transform="scale(0.015625)"/>
       </defs>
       <use xlink:href="#DejaVuSans-30"/>
       <use xlink:href="#DejaVuSans-2e" transform="translate(63.623047 0)"/>
       <use xlink:href="#DejaVuSans-30" transform="translate(95.410156 0)"/>
       <use xlink:href="#DejaVuSans-30" transform="translate(159.033203 0)"/>
      </g>
     </g>
    </g>
    <g id="ytick_2">
     <g id="line2d_13">
      <g>
       <use xlink:href="#m72c2053d4b" x="56.9" y="339.33345" style="stroke: #000000; stroke-width: 0.8"/>
      </g>
     </g>
     <g id="text_14">
      <!-- 0.25 -->
      <g transform="translate(27.634375 343.132669) scale(0.1 -0.1)">
       <use xlink:href="#DejaVuSans-30"/>
       <use xlink:href="#DejaVuSans-2e" transform="translate(63.623047 0)"/>
       <use xlink:href="#DejaVuSans-32" transform="translate(95.410156 0)"/>
       <use xlink:href="#DejaVuSans-35" transform="translate(159.033203 0)"/>
      </g>
     </g>
    </g>
    <g id="ytick_3">
     <g id="line2d_14">
      <g>
       <use xlink:href="#m72c2053d4b" x="56.9" y="291.506901" style="stroke: #000000; stroke-width: 0.8"/>
      </g>
     </g>
     <g id="text_15">
      <!-- 0.50 -->
      <g transform="translate(27.634375 295.30612) scale(0.1 -0.1)">
       <use xlink:href="#DejaVuSans-30"/>
       <use xlink:href="#DejaVuSans-2e" transform="translate(63.623047 0)"/>
       <use xlink:href="#DejaVuSans-35" transform="translate(95.410156 0)"/>
       <use xlink:href="#DejaVuSans-30" transform="translate(159.033203 0)"/>
      </g>
     </g>
    </g>
    <g id="ytick_4">
     <g id="line2d_15">
      <g>
       <use xlink:href="#m72c2053d4b" x="56.9" y="243.680351" style="stroke: #000000; stroke-width: 0.8"/>
      </g>
     </g>
     <g id="text_16">
      <!-- 0.75 -->
      <g transform="translate(27.634375 247.47957) scale(0.1 -0.1)">
       <use xlink:href="#DejaVuSans-30"/>
       <use xlink:href="#DejaVuSans-2e" transform="translate(63.623047 0)"/>
       <use xlink:href="#DejaVuSans-37" transform="translate(95.410156 0)"/>
       <use xlink:href="#DejaVuSans-35" transform="translate(159.033203 0)"/>
      </g>
     </g>
    </g>
    <g id="ytick_5">
     <g id="line2d_16">
      <g>
       <use xlink:href="#m72c2053d4b" x="56.9" y="195.853802" style="stroke: #000000; stroke-width: 0.8"/>
      </g>
     </g>
     <g id="text_17">
      <!-- 1.00 -->
      <g transform="translate(27.634375 199.65302) scale(0.1 -0.1)">
       <use xlink:href="#DejaVuSans-31"/>
       <use xlink:href="#DejaVuSans-2e" transform="translate(63.623047 0)"/>
       <use xlink:href="#DejaVuSans-30" transform="translate(95.410156 0)"/>
       <use xlink:href="#DejaVuSans-30" transform="translate(159.033203 0)"/>
      </g>
     </g>
    </g>
    <g id="ytick_6">
     <g id="line2d_17">
      <g>
       <use xlink:href="#m72c2053d4b" x="56.9" y="148.027252" style="stroke: #000000; stroke-width: 0.8"/>
      </g>
     </g>
     <g id="text_18">
      <!-- 1.25 -->
      <g transform="translate(27.634375 151.826471) scale(0.1 -0.1)">
       <use xlink:href="#DejaVuSans-31"/>
       <use xlink:href="#DejaVuSans-2e" transform="translate(63.623047 0)"/>
       <use xlink:href="#DejaVuSans-32" transform="translate(95.410156 0)"/>
       <use xlink:href="#DejaVuSans-35" transform="translate(159.033203 0)"/>
      </g>
     </g>
    </g>
    <g id="ytick_7">
     <g id="line2d_18">
      <g>
       <use xlink:href="#m72c2053d4b" x="56.9" y="100.200702" style="stroke: #000000; stroke-width: 0.8"/>
      </g>
     </g>
     <g id="text_19">
      <!-- 1.50 -->
      <g transform="translate(27.634375 103.999921) scale(0.1 -0.1)">
       <use xlink:href="#DejaVuSans-31"/>
       <use xlink:href="#DejaVuSans-2e" transform="translate(63.623047 0)"/>
       <use xlink:href="#DejaVuSans-35" transform="translate(95.410156 0)"/>
       <use xlink:href="#DejaVuSans-30" transform="translate(159.033203 0)"/>
      </g>
     </g>
    </g>
    <g id="ytick_8">
     <g id="line2d_19">
      <g>
       <use xlink:href="#m72c2053d4b" x="56.9" y="52.374153" style="stroke: #000000; stroke-width: 0.8"/>
      </g>
     </g>
     <g id="text_20">
      <!-- 1.75 -->
      <g transform="translate(27.634375 56.173371) scale(0.1 -0.1)">
       <use xlink:href="#DejaVuSans-31"/>
       <use xlink:href="#DejaVuSans-2e" transform="translate(63.623047 0)"/>
       <use xlink:href="#DejaVuSans-37" transform="translate(95.410156 0)"/>
       <use xlink:href="#DejaVuSans-35" transform="translate(159.033203 0)"/>
      </g>
     </g>
    </g>
    <g id="text_21">
     <!-- Average Lookup Time (ms) -->
     <g transform="translate(21.13875 287.55125) rotate(-90) scale(0.12 -0.12)">
      <defs>
       <path id="DejaVuSans-41" d="M 2188 4044 
L 1331 1722 
L 3047 1722 
L 2188 4044 
z
M 1831 4666 
L 2547 4666 
L 4325 0 
L 3669 0 
L 3244 1197 
L 1141 1197 
L 716 0 
L 50 0 
L 1831 4666 
z
" transform="scale(0.015625)"/>
       <path id="DejaVuSans-76" d="M 191 3500 
L 800 3500 
L 1894 563 
L 2988 3500 
L 3597 3500 
L 2284 0 
L 1503 0 
L 191 3500 
z
" transform="scale(0.015625)"/>
       <path id="DejaVuSans-72" d="M 2631 2963 
Q 2534 3019 2420 3045 
Q 2306 3072 2169 3072 
Q 1681 3072 1420 2755 
Q 1159 2438 1159 1844 
L 1159 0 
L 581 0 
L 581 3500 
L 1159 3500 
L 1159 2956 
Q 1341 3275 1631 3429 
Q 1922 3584 2338 3584 
Q 2397 3584 2469 3576 
Q 2541 3569 2628 3553 
L 2631 2963 
z
" transform="scale(0.015625)"/>
       <path id="DejaVuSans-67" d="M 2906 1791 
Q 2906 2416 2648 2759 
Q 2391 3103 1925 3103 
Q 1463 3103 1205 2759 
Q 947 2416 947 1791 
Q 947 1169 1205 825 
Q 1463 481 1925 481 
Q 2391 481 2648 825 
Q 2906 1169 2906 1791 
z
M 3481 434 
Q 3481 -459 3084 -895 
Q 2688 -1331 1869 -1331 
Q 1566 -1331 1297 -1286 
Q 1028 -1241 775 -1147 
L 775 -588 
Q 1028 -725 1275 -790 
Q 1522 -856 1778 -856 
Q 2344 -856 2625 -561 
Q 2906 -266 2906 331 
L 2906 616 
Q 2728 306 2450 153 
Q 2172 0 1784 0 
Q 1141 0 747 490 
Q 353 981 353 1791 
Q 353 2603 747 3093 
Q 1141 3584 1784 3584 
Q 2172 3584 2450 3431 
Q 2728 3278 2906 2969 
L 2906 3500 
L 3481 3500 
L 3481 434 
z
" transform="scale(0.015625)"/>
       <path id="DejaVuSans-20" transform="scale(0.015625)"/>
       <path id="DejaVuSans-4c" d="M 628 4666 
L 1259 4666 
L 1259 531 
L 3531 531 
L 3531 0 
L 628 0 
L 628 4666 
z
" transform="scale(0.015625)"/>
       <path id="DejaVuSans-6f" d="M 1959 3097 
Q 1497 3097 1228 2736 
Q 959 2375 959 1747 
Q 959 1119 1226 758 
Q 1494 397 1959 397 
Q 2419 397 2687 759 
Q 2956 1122 2956 1747 
Q 2956 2369 2687 2733 
Q 2419 3097 1959 3097 
z
M 1959 3584 
Q 2709 3584 3137 3096 
Q 3566 2609 3566 1747 
Q 3566 888 3137 398 
Q 2709 -91 1959 -91 
Q 1206 -91 779 398 
Q 353 888 353 1747 
Q 353 2609 779 3096 
Q 1206 3584 1959 3584 
z
" transform="scale(0.015625)"/>
       <path id="DejaVuSans-6b" d="M 581 4863 
L 1159 4863 
L 1159 1991 
L 2875 3500 
L 3609 3500 
L 1753 1863 
L 3688 0 
L 2938 0 
L 1159 1709 
L 1159 0 
L 581 0 
L 581 4863 
z
" transform="scale(0.015625)"/>
       <path id="DejaVuSans-70" d="M 1159 525 
L 1159 -1331 
L 581 -1331 
L 581 3500 
L 1159 3500 
L 1159 2969 
Q 1341 3281 1617 3432 
Q 1894 3584 2278 3584 
Q 2916 3584 3314 3078 
Q 3713 2572 3713 1747 
Q 3713 922 3314 415 
Q 2916 -91 2278 -91 
Q 1894 -91 1617 61 
Q 1341 213 1159 525 
z
M 3116 1747 
Q 3116 2381 2855 2742 
Q 2594 3103 2138 3103 
Q 1681 3103 1420 2742 
Q 1159 2381 1159 1747 
Q 1159 1113 1420 752 
Q 1681 391 2138 391 
Q 2594 391 2855 752 
Q 3116 1113 3116 1747 
z
" transform="scale(0.015625)"/>
       <path id="DejaVuSans-54" d="M -19 4666 
L 3928 4666 
L 3928 4134 
L 2272 4134 
L 2272 0 
L 1638 0 
L 1638 4134 
L -19 4134 
L -19 4666 
z
" transform="scale(0.015625)"/>
       <path id="DejaVuSans-69" d="M 603 3500 
L 1178 3500 
L 1178 0 
L 603 0 
L 603 3500 
z
M 603 4863 
L 1178 4863 
L 1178 4134 
L 603 4134 
L 603 4863 
z
" transform="scale(0.015625)"/>
       <path id="DejaVuSans-6d" d="M 3328 2828 
Q 3544 3216 3844 3400 
Q 4144 3584 4550 3584 
Q 5097 3584 5394 3201 
Q 5691 2819 5691 2113 
L 5691 0 
L 5113 0 
L 5113 2094 
Q 5113 2597 4934 2840 
Q 4756 3084 4391 3084 
Q 3944 3084 3684 2787 
Q 3425 2491 3425 1978 
L 3425 0 
L 2847 0 
L 2847 2094 
Q 2847 2600 2669 2842 
Q 2491 3084 2119 3084 
Q 1678 3084 1418 2786 
Q 1159 2488 1159 1978 
L 1159 0 
L 581 0 
L 581 3500 
L 1159 3500 
L 1159 2956 
Q 1356 3278 1631 3431 
Q 1906 3584 2284 3584 
Q 2666 3584 2933 3390 
Q 3200 3197 3328 2828 
z
" transform="scale(0.015625)"/>
       <path id="DejaVuSans-28" d="M 1984 4856 
Q 1566 4138 1362 3434 
Q 1159 2731 1159 2009 
Q 1159 1288 1364 580 
Q 1569 -128 1984 -844 
L 1484 -844 
Q 1016 -109 783 600 
Q 550 1309 550 2009 
Q 550 2706 781 3412 
Q 1013 4119 1484 4856 
L 1984 4856 
z
" transform="scale(0.015625)"/>
       <path id="DejaVuSans-73" d="M 2834 3397 
L 2834 2853 
Q 2591 2978 2328 3040 
Q 2066 3103 1784 3103 
Q 1356 3103 1142 2972 
Q 928 2841 928 2578 
Q 928 2378 1081 2264 
Q 1234 2150 1697 2047 
L 1894 2003 
Q 2506 1872 2764 1633 
Q 3022 1394 3022 966 
Q 3022 478 2636 193 
Q 2250 -91 1575 -91 
Q 1294 -91 989 -36 
Q 684 19 347 128 
L 347 722 
Q 666 556 975 473 
Q 1284 391 1588 391 
Q 1994 391 2212 530 
Q 2431 669 2431 922 
Q 2431 1156 2273 1281 
Q 2116 1406 1581 1522 
L 1381 1569 
Q 847 1681 609 1914 
Q 372 2147 372 2553 
Q 372 3047 722 3315 
Q 1072 3584 1716 3584 
Q 2034 3584 2315 3537 
Q 2597 3491 2834 3397 
z
" transform="scale(0.015625)"/>
       <path id="DejaVuSans-29" d="M 513 4856 
L 1013 4856 
Q 1481 4119 1714 3412 
Q 1947 2706 1947 2009 
Q 1947 1309 1714 600 
Q 1481 -109 1013 -844 
L 513 -844 
Q 928 -128 1133 580 
Q 1338 1288 1338 2009 
Q 1338 2731 1133 3434 
Q 928 4138 513 4856 
z
" transform="scale(0.015625)"/>
      </defs>
      <use xlink:href="#DejaVuSans-41"/>
      <use xlink:href="#DejaVuSans-76" transform="translate(62.533203 0)"/>
      <use xlink:href="#DejaVuSans-65" transform="translate(121.712891 0)"/>
      <use xlink:href="#DejaVuSans-72" transform="translate(183.236328 0)"/>
      <use xlink:href="#DejaVuSans-61" transform="translate(224.349609 0)"/>
      <use xlink:href="#DejaVuSans-67" transform="translate(285.628906 0)"/>
      <use xlink:href="#DejaVuSans-65" transform="translate(349.105469 0)"/>
      <use xlink:href="#DejaVuSans-20" transform="translate(410.628906 0)"/>
      <use xlink:href="#DejaVuSans-4c" transform="translate(442.416016 0)"/>
      <use xlink:href="#DejaVuSans-6f" transform="translate(496.378906 0)"/>
      <use xlink:href="#DejaVuSans-6f" transform="translate(557.560547 0)"/>
      <use xlink:href="#DejaVuSans-6b" transform="translate(618.742188 0)"/>
      <use xlink:href="#DejaVuSans-75" transform="translate(673.527344 0)"/>
      <use xlink:href="#DejaVuSans-70" transform="translate(736.90625 0)"/>
      <use xlink:href="#DejaVuSans-20" transform="translate(800.382812 0)"/>
      <use xlink:href="#DejaVuSans-54" transform="translate(832.169922 0)"/>
      <use xlink:href="#DejaVuSans-69" transform="translate(890.128906 0)"/>
      <use xlink:href="#DejaVuSans-6d" transform="translate(917.912109 0)"/>
      <use xlink:href="#DejaVuSans-65" transform="translate(1015.324219 0)"/>
      <use xlink:href="#DejaVuSans-20" transform="translate(1076.847656 0)"/>
      <use xlink:href="#DejaVuSans-28" transform="translate(1108.634766 0)"/>
      <use xlink:href="#DejaVuSans-6d" transform="translate(1147.648438 0)"/>
      <use xlink:href="#DejaVuSans-73" transform="translate(1245.060547 0)"/>
      <use xlink:href="#DejaVuSans-29" transform="translate(1297.160156 0)"/>
     </g>
    </g>
   </g>
   <g id="patch_91">
    <path d="M 56.9 387.16 
L 56.9 27.6 
" style="fill: none; stroke: #000000; stroke-width: 0.8; stroke-linejoin: miter; stroke-linecap: square"/>
   </g>
   <g id="patch_92">
    <path d="M 853.2 387.16 
L 853.2 27.6 
" style="fill: none; stroke: #000000; stroke-width: 0.8; stroke-linejoin: miter; stroke-linecap: square"/>
   </g>
   <g id="patch_93">
    <path d="M 56.9 387.16 
L 853.2 387.16 
" style="fill: none; stroke: #000000; stroke-width: 0.8; stroke-linejoin: miter; stroke-linecap: square"/>
   </g>
   <g id="patch_94">
    <path d="M 56.9 27.6 
L 853.2 27.6 
" style="fill: none; stroke: #000000; stroke-width: 0.8; stroke-linejoin: miter; stroke-linecap: square"/>
   </g>
   <g id="text_22">
    <!-- NVMe Lookup Time - rpi5 -->
    <g transform="translate(367.347656 21.6) scale(0.14 -0.14)">
     <defs>
      <path id="DejaVuSans-4e" d="M 628 4666 
L 1478 4666 
L 3547 763 
L 3547 4666 
L 4159 4666 
L 4159 0 
L 3309 0 
L 1241 3903 
L 1241 0 
L 628 0 
L 628 4666 
z
" transform="scale(0.015625)"/>
      <path id="DejaVuSans-4d" d="M 628 4666 
L 1569 4666 
L 2759 1491 
L 3956 4666 
L 4897 4666 
L 4897 0 
L 4281 0 
L 4281 4097 
L 3078 897 
L 2444 897 
L 1241 4097 
L 1241 0 
L 628 0 
L 628 4666 
z
" transform="scale(0.015625)"/>
     </defs>
     <use xlink:href="#DejaVuSans-4e"/>
     <use xlink:href="#DejaVuSans-56" transform="translate(74.804688 0)"/>
     <use xlink:href="#DejaVuSans-4d" transform="translate(143.212891 0)"/>
     <use xlink:href="#DejaVuSans-65" transform="translate(229.492188 0)"/>
     <use xlink:href="#DejaVuSans-20" transform="translate(291.015625 0)"/>
     <use xlink:href="#DejaVuSans-4c" transform="translate(322.802734 0)"/>
     <use xlink:href="#DejaVuSans-6f" transform="translate(376.765625 0)"/>
     <use xlink:href="#DejaVuSans-6f" transform="translate(437.947266 0)"/>
     <use xlink:href="#DejaVuSans-6b" transform="translate(499.128906 0)"/>
     <use xlink:href="#DejaVuSans-75" transform="translate(553.914062 0)"/>
     <use xlink:href="#DejaVuSans-70" transform="translate(617.292969 0)"/>
     <use xlink:href="#DejaVuSans-20" transform="translate(680.769531 0)"/>
     <use xlink:href="#DejaVuSans-54" transform="translate(712.556641 0)"/>
     <use xlink:href="#DejaVuSans-69" transform="translate(770.515625 0)"/>
     <use xlink:href="#DejaVuSans-6d" transform="translate(798.298828 0)"/>
     <use xlink:href="#DejaVuSans-65" transform="translate(895.710938 0)"/>
     <use xlink:href="#DejaVuSans-20" transform="translate(957.234375 0)"/>
     <use xlink:href="#DejaVuSans-2d" transform="translate(989.021484 0)"/>
     <use xlink:href="#DejaVuSans-20" transform="translate(1025.105469 0)"/>
     <use xlink:href="#DejaVuSans-72" transform="translate(1056.892578 0)"/>
     <use xlink:href="#DejaVuSans-70" transform="translate(1098.005859 0)"/>
     <use xlink:href="#DejaVuSans-69" transform="translate(1161.482422 0)"/>
     <use xlink:href="#DejaVuSans-35" transform="translate(1189.265625 0)"/>
    </g>
   </g>
   <g id="legend_1">
    <g id="patch_95">
     <path d="M 63.9 155.25 
L 162.526563 155.25 
Q 164.526563 155.25 164.526563 153.25 
L 164.526563 34.6 
Q 164.526563 32.6 162.526563 32.6 
L 63.9 32.6 
Q 61.9 32.6 61.9 34.6 
L 61.9 153.25 
Q 61.9 155.25 63.9 155.25 
z
" style="fill: #ffffff; opacity: 0.8; stroke: #cccccc; stroke-linejoin: miter"/>
    </g>
    <g id="patch_96">
     <path d="M 65.9 44.198438 
L 85.9 44.198438 
L 85.9 37.198438 
L 65.9 37.198438 
z
" style="fill: #1f77b4; opacity: 0.8"/>
    </g>
    <g id="text_23">
     <!-- Hash_Size 3 -->
     <g transform="translate(93.9 44.198438) scale(0.1 -0.1)">
      <defs>
       <path id="DejaVuSans-48" d="M 628 4666 
L 1259 4666 
L 1259 2753 
L 3553 2753 
L 3553 4666 
L 4184 4666 
L 4184 0 
L 3553 0 
L 3553 2222 
L 1259 2222 
L 1259 0 
L 628 0 
L 628 4666 
z
" transform="scale(0.015625)"/>
       <path id="DejaVuSans-68" d="M 3513 2113 
L 3513 0 
L 2938 0 
L 2938 2094 
Q 2938 2591 2744 2837 
Q 2550 3084 2163 3084 
Q 1697 3084 1428 2787 
Q 1159 2491 1159 1978 
L 1159 0 
L 581 0 
L 581 4863 
L 1159 4863 
L 1159 2956 
Q 1366 3272 1645 3428 
Q 1925 3584 2291 3584 
Q 2894 3584 3203 3211 
Q 3513 2838 3513 2113 
z
" transform="scale(0.015625)"/>
       <path id="DejaVuSans-5f" d="M 3263 -1063 
L 3263 -1509 
L -63 -1509 
L -63 -1063 
L 3263 -1063 
z
" transform="scale(0.015625)"/>
       <path id="DejaVuSans-53" d="M 3425 4513 
L 3425 3897 
Q 3066 4069 2747 4153 
Q 2428 4238 2131 4238 
Q 1616 4238 1336 4038 
Q 1056 3838 1056 3469 
Q 1056 3159 1242 3001 
Q 1428 2844 1947 2747 
L 2328 2669 
Q 3034 2534 3370 2195 
Q 3706 1856 3706 1288 
Q 3706 609 3251 259 
Q 2797 -91 1919 -91 
Q 1588 -91 1214 -16 
Q 841 59 441 206 
L 441 856 
Q 825 641 1194 531 
Q 1563 422 1919 422 
Q 2459 422 2753 634 
Q 3047 847 3047 1241 
Q 3047 1584 2836 1778 
Q 2625 1972 2144 2069 
L 1759 2144 
Q 1053 2284 737 2584 
Q 422 2884 422 3419 
Q 422 4038 858 4394 
Q 1294 4750 2059 4750 
Q 2388 4750 2728 4690 
Q 3069 4631 3425 4513 
z
" transform="scale(0.015625)"/>
       <path id="DejaVuSans-7a" d="M 353 3500 
L 3084 3500 
L 3084 2975 
L 922 459 
L 3084 459 
L 3084 0 
L 275 0 
L 275 525 
L 2438 3041 
L 353 3041 
L 353 3500 
z
" transform="scale(0.015625)"/>
      </defs>
      <use xlink:href="#DejaVuSans-48"/>
      <use xlink:href="#DejaVuSans-61" transform="translate(75.195312 0)"/>
      <use xlink:href="#DejaVuSans-73" transform="translate(136.474609 0)"/>
      <use xlink:href="#DejaVuSans-68" transform="translate(188.574219 0)"/>
      <use xlink:href="#DejaVuSans-5f" transform="translate(251.953125 0)"/>
      <use xlink:href="#DejaVuSans-53" transform="translate(301.953125 0)"/>
      <use xlink:href="#DejaVuSans-69" transform="translate(365.429688 0)"/>
      <use xlink:href="#DejaVuSans-7a" transform="translate(393.212891 0)"/>
      <use xlink:href="#DejaVuSans-65" transform="translate(445.703125 0)"/>
      <use xlink:href="#DejaVuSans-20" transform="translate(507.226562 0)"/>
      <use xlink:href="#DejaVuSans-33" transform="translate(539.013672 0)"/>
     </g>
    </g>
    <g id="patch_97">
     <path d="M 65.9 59.154688 
L 85.9 59.154688 
L 85.9 52.154688 
L 65.9 52.154688 
z
" style="fill: #ff7f0e; opacity: 0.8"/>
    </g>
    <g id="text_24">
     <!-- Hash_Size 4 -->
     <g transform="translate(93.9 59.154688) scale(0.1 -0.1)">
      <use xlink:href="#DejaVuSans-48"/>
      <use xlink:href="#DejaVuSans-61" transform="translate(75.195312 0)"/>
      <use xlink:href="#DejaVuSans-73" transform="translate(136.474609 0)"/>
      <use xlink:href="#DejaVuSans-68" transform="translate(188.574219 0)"/>
      <use xlink:href="#DejaVuSans-5f" transform="translate(251.953125 0)"/>
      <use xlink:href="#DejaVuSans-53" transform="translate(301.953125 0)"/>
      <use xlink:href="#DejaVuSans-69" transform="translate(365.429688 0)"/>
      <use xlink:href="#DejaVuSans-7a" transform="translate(393.212891 0)"/>
      <use xlink:href="#DejaVuSans-65" transform="translate(445.703125 0)"/>
      <use xlink:href="#DejaVuSans-20" transform="translate(507.226562 0)"/>
      <use xlink:href="#DejaVuSans-34" transform="translate(539.013672 0)"/>
     </g>
    </g>
    <g id="patch_98">
     <path d="M 65.9 74.110937 
L 85.9 74.110937 
L 85.9 67.110937 
L 65.9 67.110937 
z
" style="fill: #2ca02c; opacity: 0.8"/>
    </g>
    <g id="text_25">
     <!-- Hash_Size 5 -->
     <g transform="translate(93.9 74.110937) scale(0.1 -0.1)">
      <use xlink:href="#DejaVuSans-48"/>
      <use xlink:href="#DejaVuSans-61" transform="translate(75.195312 0)"/>
      <use xlink:href="#DejaVuSans-73" transform="translate(136.474609 0)"/>
      <use xlink:href="#DejaVuSans-68" transform="translate(188.574219 0)"/>
      <use xlink:href="#DejaVuSans-5f" transform="translate(251.953125 0)"/>
      <use xlink:href="#DejaVuSans-53" transform="translate(301.953125 0)"/>
      <use xlink:href="#DejaVuSans-69" transform="translate(365.429688 0)"/>
      <use xlink:href="#DejaVuSans-7a" transform="translate(393.212891 0)"/>
      <use xlink:href="#DejaVuSans-65" transform="translate(445.703125 0)"/>
      <use xlink:href="#DejaVuSans-20" transform="translate(507.226562 0)"/>
      <use xlink:href="#DejaVuSans-35" transform="translate(539.013672 0)"/>
     </g>
    </g>
    <g id="patch_99">
     <path d="M 65.9 89.067188 
L 85.9 89.067188 
L 85.9 82.067188 
L 65.9 82.067188 
z
" style="fill: #d62728; opacity: 0.8"/>
    </g>
    <g id="text_26">
     <!-- Hash_Size 6 -->
     <g transform="translate(93.9 89.067188) scale(0.1 -0.1)">
      <use xlink:href="#DejaVuSans-48"/>
      <use xlink:href="#DejaVuSans-61" transform="translate(75.195312 0)"/>
      <use xlink:href="#DejaVuSans-73" transform="translate(136.474609 0)"/>
      <use xlink:href="#DejaVuSans-68" transform="translate(188.574219 0)"/>
      <use xlink:href="#DejaVuSans-5f" transform="translate(251.953125 0)"/>
      <use xlink:href="#DejaVuSans-53" transform="translate(301.953125 0)"/>
      <use xlink:href="#DejaVuSans-69" transform="translate(365.429688 0)"/>
      <use xlink:href="#DejaVuSans-7a" transform="translate(393.212891 0)"/>
      <use xlink:href="#DejaVuSans-65" transform="translate(445.703125 0)"/>
      <use xlink:href="#DejaVuSans-20" transform="translate(507.226562 0)"/>
      <use xlink:href="#DejaVuSans-36" transform="translate(539.013672 0)"/>
     </g>
    </g>
    <g id="patch_100">
     <path d="M 65.9 104.023438 
L 85.9 104.023438 
L 85.9 97.023438 
L 65.9 97.023438 
z
" style="fill: #9467bd; opacity: 0.8"/>
    </g>
    <g id="text_27">
     <!-- Hash_Size 7 -->
     <g transform="translate(93.9 104.023438) scale(0.1 -0.1)">
      <use xlink:href="#DejaVuSans-48"/>
      <use xlink:href="#DejaVuSans-61" transform="translate(75.195312 0)"/>
      <use xlink:href="#DejaVuSans-73" transform="translate(136.474609 0)"/>
      <use xlink:href="#DejaVuSans-68" transform="translate(188.574219 0)"/>
      <use xlink:href="#DejaVuSans-5f" transform="translate(251.953125 0)"/>
      <use xlink:href="#DejaVuSans-53" transform="translate(301.953125 0)"/>
      <use xlink:href="#DejaVuSans-69" transform="translate(365.429688 0)"/>
      <use xlink:href="#DejaVuSans-7a" transform="translate(393.212891 0)"/>
      <use xlink:href="#DejaVuSans-65" transform="translate(445.703125 0)"/>
      <use xlink:href="#DejaVuSans-20" transform="translate(507.226562 0)"/>
      <use xlink:href="#DejaVuSans-37" transform="translate(539.013672 0)"/>
     </g>
    </g>
    <g id="patch_101">
     <path d="M 65.9 118.979688 
L 85.9 118.979688 
L 85.9 111.979688 
L 65.9 111.979688 
z
" style="fill: #8c564b; opacity: 0.8"/>
    </g>
    <g id="text_28">
     <!-- Hash_Size 8 -->
     <g transform="translate(93.9 118.979688) scale(0.1 -0.1)">
      <use xlink:href="#DejaVuSans-48"/>
      <use xlink:href="#DejaVuSans-61" transform="translate(75.195312 0)"/>
      <use xlink:href="#DejaVuSans-73" transform="translate(136.474609 0)"/>
      <use xlink:href="#DejaVuSans-68" transform="translate(188.574219 0)"/>
      <use xlink:href="#DejaVuSans-5f" transform="translate(251.953125 0)"/>
      <use xlink:href="#DejaVuSans-53" transform="translate(301.953125 0)"/>
      <use xlink:href="#DejaVuSans-69" transform="translate(365.429688 0)"/>
      <use xlink:href="#DejaVuSans-7a" transform="translate(393.212891 0)"/>
      <use xlink:href="#DejaVuSans-65" transform="translate(445.703125 0)"/>
      <use xlink:href="#DejaVuSans-20" transform="translate(507.226562 0)"/>
      <use xlink:href="#DejaVuSans-38" transform="translate(539.013672 0)"/>
     </g>
    </g>
    <g id="patch_102">
     <path d="M 65.9 133.935938 
L 85.9 133.935938 
L 85.9 126.935938 
L 65.9 126.935938 
z
" style="fill: #e377c2; opacity: 0.8"/>
    </g>
    <g id="text_29">
     <!-- Hash_Size 16 -->
     <g transform="translate(93.9 133.935938) scale(0.1 -0.1)">
      <use xlink:href="#DejaVuSans-48"/>
      <use xlink:href="#DejaVuSans-61" transform="translate(75.195312 0)"/>
      <use xlink:href="#DejaVuSans-73" transform="translate(136.474609 0)"/>
      <use xlink:href="#DejaVuSans-68" transform="translate(188.574219 0)"/>
      <use xlink:href="#DejaVuSans-5f" transform="translate(251.953125 0)"/>
      <use xlink:href="#DejaVuSans-53" transform="translate(301.953125 0)"/>
      <use xlink:href="#DejaVuSans-69" transform="translate(365.429688 0)"/>
      <use xlink:href="#DejaVuSans-7a" transform="translate(393.212891 0)"/>
      <use xlink:href="#DejaVuSans-65" transform="translate(445.703125 0)"/>
      <use xlink:href="#DejaVuSans-20" transform="translate(507.226562 0)"/>
      <use xlink:href="#DejaVuSans-31" transform="translate(539.013672 0)"/>
      <use xlink:href="#DejaVuSans-36" transform="translate(602.636719 0)"/>
     </g>
    </g>
    <g id="patch_103">
     <path d="M 65.9 148.892187 
L 85.9 148.892187 
L 85.9 141.892187 
L 65.9 141.892187 
z
" style="fill: #7f7f7f; opacity: 0.8"/>
    </g>
    <g id="text_30">
     <!-- Hash_Size 32 -->
     <g transform="translate(93.9 148.892187) scale(0.1 -0.1)">
      <use xlink:href="#DejaVuSans-48"/>
      <use xlink:href="#DejaVuSans-61" transform="translate(75.195312 0)"/>
      <use xlink:href="#DejaVuSans-73" transform="translate(136.474609 0)"/>
      <use xlink:href="#DejaVuSans-68" transform="translate(188.574219 0)"/>
      <use xlink:href="#DejaVuSans-5f" transform="translate(251.953125 0)"/>
      <use xlink:href="#DejaVuSans-53" transform="translate(301.953125 0)"/>
      <use xlink:href="#DejaVuSans-69" transform="translate(365.429688 0)"/>
      <use xlink:href="#DejaVuSans-7a" transform="translate(393.212891 0)"/>
      <use xlink:href="#DejaVuSans-65" transform="translate(445.703125 0)"/>
      <use xlink:href="#DejaVuSans-20" transform="translate(507.226562 0)"/>
      <use xlink:href="#DejaVuSans-33" transform="translate(539.013672 0)"/>
      <use xlink:href="#DejaVuSans-32" transform="translate(602.636719 0)"/>
     </g>
    </g>
   </g>
  </g>
 </g>
 <defs>
  <clipPath id="p9322062bb9">
   <rect x="56.9" y="27.6" width="796.3" height="359.56"/>
  </clipPath>
 </defs>
</svg>
